<svg width="160" height="160" viewBox="0 0 160 160" fill="none" xmlns="http://www.w3.org/2000/svg">
<path d="M153.462 75.7509C152.032 87.6882 140.125 94.8506 138.284 95.959C137.156 96.6361 136.439 96.9572 134.874 98.0055C133.319 99.0437 128.228 102.605 123.879 108.749C119.125 115.465 120.97 117.185 116.12 125.797C113.261 130.878 111.245 134.459 107.338 137.479C97.8632 144.812 85.3792 142.53 83.5535 142.168C76.4412 140.759 69.5447 136.736 65.2663 133.065C64.9704 132.814 64.6845 132.563 64.4186 132.313C63.3553 131.33 62.5026 130.392 61.8957 129.549C61.5095 129.012 60.2857 127.202 57.9735 125.888C55.5309 124.493 53.1484 124.388 52.0901 124.353C40.3184 123.951 29.0431 125.737 21.314 122.903C17.8281 121.624 14.7886 119.307 12.3259 116.428C12.1704 116.247 12.0199 116.062 11.8694 115.881C9.46691 112.912 7.6663 109.401 6.61301 105.84C6.50768 105.484 6.40738 105.123 6.3171 104.762C6.13152 104.024 5.97601 103.287 5.85563 102.555C4.44623 93.9327 7.56099 84.8443 12.9027 79.3672C14.6281 77.5967 15.9773 76.8242 17.2362 75.8863C17.4419 75.7308 17.6475 75.5753 17.8481 75.4098C18.6256 74.7628 19.3729 73.9803 20.1804 72.7716C24.1378 66.7929 22.5829 60.4781 22.6832 55.949C22.6933 55.3371 22.7384 54.7202 22.8187 54.1133C22.8688 53.6719 22.939 53.2255 23.0243 52.7841C25.3014 40.7766 38.5679 29.7772 49.7127 25.1979C60.9779 20.5735 72.193 21.6318 81.5673 24.7716C81.8231 24.8569 82.0739 24.9421 82.3246 25.0324C93.3441 28.8895 101.69 35.5352 104.358 38.9258C104.594 39.2267 105.256 40.0995 106.32 41.1428C111.812 46.5296 118.558 47.1415 124.135 48.2199C129.617 49.2782 135.28 50.3716 140.17 52.6437C140.326 52.7189 140.486 52.7892 140.637 52.8644C143.195 54.0982 145.527 55.6781 147.493 57.7697C150.001 60.433 151.857 63.8537 152.825 67.5101C152.915 67.8412 152.995 68.1722 153.071 68.5082C153.597 70.9007 153.748 73.3634 153.462 75.7609V75.7509Z" fill="#F2F4F7"/>
<path d="M82.3194 25.0276C77.7652 26.5022 73.236 28.057 68.747 29.7272C63.4254 31.7084 58.1338 33.7849 52.9526 36.1122C47.9972 38.3341 43.132 40.7366 38.4172 43.4351C33.7376 46.1184 29.2034 49.0727 24.9451 52.388C24.2229 52.9498 23.5157 53.5216 22.8135 54.1034C22.8636 53.662 22.9338 53.2156 23.0191 52.7742C23.9721 52.0119 24.9351 51.2645 25.9131 50.5323C30.2918 47.262 34.9113 44.3379 39.6862 41.6846C44.4511 39.0413 49.3714 36.6739 54.3821 34.5222C59.7188 32.23 65.1457 30.1435 70.6379 28.2576C74.2542 27.0137 77.8906 25.8301 81.5621 24.7617C81.8179 24.847 82.0687 24.9323 82.3194 25.0225V25.0276Z" fill="white"/>
<path d="M17.8781 79.1307C17.6574 82.2254 16.9151 85.2548 15.8769 88.1739C14.8136 91.1632 13.4644 94.0423 12.0148 96.8661C10.7258 99.384 9.42674 101.937 7.80667 104.264C7.42548 104.801 7.02924 105.333 6.60792 105.839C6.50259 105.483 6.40229 105.122 6.31201 104.761C6.79352 104.149 7.23989 103.502 7.66622 102.845C8.37844 101.731 9.03047 100.583 9.66245 99.4191C10.3897 98.0799 11.107 96.7357 11.7941 95.3765C13.1885 92.6279 14.4725 89.8191 15.4506 86.9C16.4085 84.036 17.0857 81.0567 17.2161 78.0322C17.2462 77.32 17.2562 76.6028 17.2311 75.8905C17.4368 75.735 17.6424 75.5796 17.843 75.4141C17.9534 76.6529 17.9634 77.9019 17.8781 79.1407V79.1307Z" fill="white"/>
<path d="M153.071 68.4981C146.831 69.0448 140.617 69.8172 134.432 70.8154C134.001 70.8856 133.575 70.9558 133.154 71.026C132.782 71.0862 132.411 71.1464 132.035 71.2116C121.196 73.0574 110.468 75.5301 99.8946 78.5546C88.4939 81.8097 77.284 85.732 66.2746 90.1458C55.1699 94.5947 44.2858 99.5752 33.6174 104.982C28.341 107.65 23.1297 110.439 17.9535 113.293C16.0726 114.331 14.1968 115.37 12.331 116.418C12.1755 116.237 12.025 116.052 11.8745 115.871C20.2206 111.016 28.7422 106.467 37.3842 102.183C48.0726 96.8868 58.9767 92.0216 70.0915 87.6831C81.2313 83.3395 92.5968 79.5527 104.128 76.4028C113.557 73.8248 123.112 71.6931 132.752 70.0781C133.113 70.0229 133.47 69.9577 133.831 69.9025C135.521 69.6267 137.211 69.3708 138.901 69.1251C143.526 68.463 148.17 67.9163 152.83 67.5C152.92 67.831 153.001 68.1621 153.076 68.4981H153.071Z" fill="white"/>
<path d="M140.637 52.8597C140.452 53.5217 140.256 54.1737 140.055 54.8308C139.328 57.1581 138.485 59.4553 137.613 61.7374C136.77 63.9292 135.852 66.101 134.779 68.1926C134.478 68.7744 134.162 69.3462 133.831 69.913C133.61 70.2891 133.384 70.6653 133.154 71.0314C131.333 73.9405 129.181 76.6389 127.075 79.3424C121.994 85.8477 116.587 92.1073 110.854 98.0459C105.131 103.974 99.0823 109.597 92.6873 114.798C86.3124 119.979 79.6064 124.749 72.5594 128.973C70.1669 130.407 67.7394 131.771 65.2666 133.06C64.9707 132.81 64.6848 132.559 64.4189 132.308C67.8447 130.532 71.2002 128.616 74.4854 126.585C81.4171 122.292 88.0177 117.457 94.2622 112.215C100.547 106.944 106.485 101.271 112.103 95.3023C117.726 89.3236 123.027 83.069 128.073 76.5938C129.442 74.8383 130.811 73.0728 132.035 71.212C132.055 71.1819 132.075 71.1568 132.09 71.1217C132.316 70.7756 132.537 70.4296 132.747 70.0785C133.766 68.4032 134.653 66.6578 135.451 64.8672C137.237 60.8697 138.611 56.7167 140.166 52.6289C140.321 52.7041 140.482 52.7744 140.632 52.8496L140.637 52.8597Z" fill="white"/>
<path d="M33.9785 64.6113V114.708C34.0237 115.149 34.2594 117.09 35.6638 118.43C36.4713 119.197 37.3089 119.438 37.7553 119.518H118.593C118.959 119.478 120.208 119.277 121.246 118.013C122.545 116.428 122.49 114.402 122.475 114.066C122.33 110.64 122.515 91.5104 122.475 65.2533" fill="white"/>
<path d="M30.5431 53.8825C35.0723 45.3709 38.5883 39.1716 39.8472 37.1603C40.1783 36.6286 40.8955 35.5051 42.2498 34.8531C43.268 34.3616 44.2058 34.3114 44.7124 34.3214H110.824C111.26 34.3214 112.725 34.2712 114.129 35.1339C115.173 35.7709 115.785 36.6688 116.126 37.2857C119.411 42.8681 122.696 48.4556 125.986 54.038V67.5653C125.806 72.1998 122.195 75.9415 117.796 76.2675C113.783 76.5684 109.946 73.9653 108.667 69.9477C107.338 73.865 103.632 76.5133 99.4937 76.4982C95.3607 76.4832 91.6742 73.8199 90.3651 69.8976C89.8334 70.8506 88.8103 72.4004 86.9946 73.6393C84.4065 75.4148 81.7783 75.5001 80.0228 75.5603C77.9714 75.6305 74.982 75.7258 72.0178 73.8299C68.3513 71.4775 67.2429 67.6757 66.962 66.5772C66.8868 67.4951 66.5256 70.3691 64.2034 72.7064C61.6554 75.2694 57.6178 76.3026 54.0015 74.9534C49.3118 73.2079 48.068 68.4882 47.9626 68.0719C47.1551 72.3603 43.4736 75.465 39.3507 75.5151C34.7915 75.5703 30.7438 71.8838 30.3877 67.0387C30.4328 62.65 30.483 58.2662 30.5281 53.8775L30.5431 53.8825Z" fill="white"/>
<path d="M40.5291 37.0495C40.8049 36.6984 41.4018 36.0363 42.3999 35.5999C43.5234 35.1084 44.5316 35.1686 44.973 35.2238C46.8739 35.2539 48.7799 35.2839 50.6808 35.319C50.8614 35.319 51.6087 35.3592 52.0953 35.921C52.6821 36.5981 52.667 37.7718 51.9448 38.6896C50.2445 43.8207 48.5441 48.9567 46.8438 54.0877C46.3824 55.0457 46.4676 56.0589 47.0294 56.6156C47.1548 56.736 47.4156 56.9467 47.872 57.0369C47.8871 60.7987 47.9021 64.5554 47.9172 68.3172C47.7617 69.1949 47.2752 71.2413 45.5297 72.9517C42.2745 76.1366 37.7103 75.1335 37.3842 75.0583C33.8883 74.2307 31.1447 71.2564 30.3623 67.4746C30.4175 62.9454 30.4727 58.4162 30.5279 53.8871C33.8583 48.2745 37.1886 42.667 40.519 37.0545L40.5291 37.0495Z" fill="#C9C8C8"/>
<path d="M70.2919 36.9448C70.5377 36.8746 70.8938 36.7291 71.0895 36.393C71.3101 36.0218 71.1496 35.7109 71.3252 35.4551C71.6562 34.9736 72.8048 35.2244 73.0104 35.2695C75.7741 35.8513 80.9803 35.5203 82.6054 35.3648C83.8944 35.2394 84.8324 35.0438 85.6449 35.6457C86.5478 36.3128 86.7083 37.5065 86.7685 37.9379C87.1246 40.4206 88.4035 46.2187 90.2342 54.2237C90.3947 55.5579 90.5201 56.9473 90.6104 58.3868C90.8612 62.5046 90.7308 66.2914 90.3998 69.677C86.8186 74.0206 81.8731 76.3629 77.5998 75.42C75.3477 74.9234 73.4819 73.5591 73.1559 73.3134C72.2681 72.6513 69.8255 70.7805 68.9929 67.6056C68.712 66.5272 68.712 65.6795 68.712 65.1729C68.712 61.6018 68.4211 58.0306 68.396 54.4595C68.3609 49.1178 69.2487 43.7811 68.9477 38.4495C68.9327 38.1636 68.8625 37.2056 69.369 36.9046C69.6499 36.7341 70.0211 36.8294 70.302 36.9398L70.2919 36.9448Z" fill="#C9C8C8"/>
<path d="M101.65 34.4715C105.838 34.7273 108.361 34.6069 109.936 34.4263C110.282 34.3862 111.014 34.2959 111.947 34.4715C111.947 34.4715 113.893 34.8426 115.744 36.6683C117.66 38.5593 121.607 45.0345 125.891 54.2683C126.392 60.4175 125.56 65.1824 124.767 68.2621C123.779 72.0991 122.816 73.4282 121.582 74.2508C119.12 75.901 115.694 75.4596 113.392 74.1555C110.347 72.4351 109.359 69.2552 108.948 67.931C108.336 65.9599 108.436 62.4689 108.667 55.5774C108.687 55.0257 108.702 54.5693 108.712 54.2683C106.355 47.6677 104.002 41.0721 101.645 34.4715H101.65Z" fill="#C9C8C8"/>
<path d="M95.0598 37.9338C92.3764 39.0473 89.7232 40.226 87.0047 41.2542C84.2862 42.2824 81.5125 43.1902 78.7087 43.9827C73.1012 45.5627 67.3633 46.6561 61.5702 47.263C58.31 47.6041 55.0348 47.7545 51.7645 47.895C51.6592 47.895 51.6592 48.0554 51.7645 48.0605C54.7138 48.1658 57.663 48.0103 60.6022 47.7445C63.5413 47.4786 66.3451 47.0925 69.194 46.5809C74.962 45.5426 80.6398 44.0028 86.142 41.9764C89.1965 40.8529 92.2611 39.6141 95.11 38.0341C95.1652 38.004 95.125 37.9088 95.0699 37.9338H95.0598Z" fill="black"/>
<path d="M37.2237 50.5722C36.7673 49.8099 37.329 48.5158 38.0964 47.8287C39.4857 46.5748 42.0688 46.8155 42.5904 47.8889C42.9566 48.6462 42.2744 49.7497 41.6525 50.3215C40.3183 51.5503 37.8506 51.6155 37.2237 50.5722Z" fill="white"/>
<path d="M39.9073 45.0799C38.7236 43.6203 40.0829 40.5858 41.7782 38.9006C41.9788 38.705 44.4165 36.3325 45.8961 37.1551C47.1299 37.8423 46.9093 40.315 46.518 41.6492C45.9613 43.5652 44.2559 45.8824 42.0239 45.8924C41.7681 45.8924 40.5694 45.8975 39.9023 45.0799H39.9073Z" fill="white"/>
<path d="M115.298 79.1211H98.3046C95.9666 79.1211 94.0713 81.0163 94.0713 83.3543V113.077C94.0713 115.415 95.9666 117.31 98.3046 117.31H115.298C117.636 117.31 119.531 115.415 119.531 113.077V83.3543C119.531 81.0163 117.636 79.1211 115.298 79.1211Z" fill="#C9C8C8"/>
<path d="M35.5133 44.7149C36.3911 43.9826 37.1133 43.3356 37.66 42.834C38.5227 42.0466 39.2299 41.3493 39.9071 40.3362C40.3384 39.6892 40.7447 39.0722 40.529 38.7763C40.223 38.35 38.8538 38.8917 38.7886 38.9168C37.6952 40.8478 36.6017 42.7789 35.5083 44.7099L35.5133 44.7149Z" fill="white"/>
<path d="M105.116 82.3959C105.151 81.6385 105.748 80.8359 106.616 80.8359C107.479 80.8359 108.116 81.6435 108.116 82.3959C108.116 83.394 107.007 84.2266 106.119 83.9557C105.492 83.7651 105.091 83.0579 105.121 82.3959H105.116Z" fill="white"/>
<path d="M99.2477 87.5126C100.186 86.5396 99.8897 85.9477 100.682 85.3308C101.515 84.6788 102.082 85.1503 102.989 84.4581C103.516 84.0568 104.198 83.2443 104.053 82.4619C103.827 81.2732 101.816 80.8769 101.309 80.7765C100.597 80.6361 98.5404 80.2298 97.126 81.5891C95.7868 82.8731 96.0376 84.7791 96.1881 85.9578C96.2734 86.6148 96.4941 88.285 97.3719 88.5158C98.0991 88.7064 98.9367 87.8336 99.2427 87.5176L99.2477 87.5126Z" fill="white"/>
<path d="M116.953 70.6042C117.62 68.0361 120.775 66.1854 121.914 66.9076C122.837 67.4945 122.626 69.8869 121.633 71.4468C120.63 73.0217 118.508 74.2656 117.47 73.5985C116.657 73.0769 116.718 71.5271 116.953 70.6042Z" fill="white"/>
<path d="M68.1101 39.1564C67.774 38.9608 67.8994 38.2185 67.9245 38.0981C68.0348 37.4962 68.5013 36.7238 68.9878 36.789C69.4041 36.8392 69.7502 37.4912 69.6749 38.0379C69.5646 38.8505 68.5163 39.3972 68.1151 39.1614L68.1101 39.1564Z" fill="#F2F4F7"/>
<path d="M59.0217 75.475C58.0887 75.5502 57.4518 75.3195 57.0957 75.1539C54.9189 74.1157 54.3119 70.9208 55.0041 68.9195C55.2549 68.1922 55.5909 67.8862 55.6912 67.7959C56.4185 67.1589 57.3615 67.2593 58.811 67.3596C62.4875 67.6104 63.5859 66.5671 64.3634 67.4198C64.574 67.6505 65.1658 68.4681 64.3332 70.7853C64.1627 71.4725 63.7264 72.7966 62.5527 73.8499C61.8656 74.4668 61.1433 74.7979 60.8373 74.9333C60.1251 75.2543 59.4831 75.3997 59.0217 75.475Z" fill="#F2F4F7"/>
<path d="M86.2222 79.1211H42.3902C40.4844 79.1211 38.9395 80.6661 38.9395 82.5719V113.86C38.9395 115.765 40.4844 117.31 42.3902 117.31H86.2222C88.128 117.31 89.673 115.765 89.673 113.86V82.5719C89.673 80.6661 88.128 79.1211 86.2222 79.1211Z" fill="#F2F4F7"/>
<path d="M89.4819 101.816C84.0399 106.917 78.5929 112.018 73.1509 117.119H75.1622C79.9973 112.5 84.8324 107.885 89.6725 103.266C89.6123 102.784 89.5471 102.298 89.4869 101.816H89.4819Z" fill="black"/>
<path d="M89.6726 104.582C85.6751 108.825 81.6777 113.069 77.6802 117.312H83.5886C85.6149 114.799 87.6463 112.286 89.6726 109.778V104.582Z" fill="black"/>
<path d="M53.214 79.1222C48.4542 82.3974 43.6993 85.6727 38.9395 88.9479V90.257C44.221 86.5905 49.5024 82.9241 54.7789 79.2576C54.2573 79.2125 53.7357 79.1623 53.209 79.1172L53.214 79.1222Z" fill="black"/>
<path d="M55.5509 79.262C50.0136 83.1541 44.4763 87.0463 38.939 90.9384V91.5002C44.712 87.4074 50.485 83.3096 56.253 79.2168C56.0173 79.2318 55.7866 79.2469 55.5509 79.262Z" fill="black"/>
<path d="M98.9665 98.1419C99.7338 98.1419 100.356 97.5199 100.356 96.7526C100.356 95.9853 99.7338 95.3633 98.9665 95.3633C98.1992 95.3633 97.5771 95.9853 97.5771 96.7526C97.5771 97.5199 98.1992 98.1419 98.9665 98.1419Z" fill="black"/>
<path d="M30.5431 53.8825C35.0723 45.3709 38.5883 39.1716 39.8472 37.1603C40.1783 36.6286 40.8955 35.5051 42.2498 34.8531C43.268 34.3616 44.2058 34.3114 44.7124 34.3214H110.824C111.26 34.3214 112.725 34.2712 114.129 35.1339C115.173 35.7709 115.785 36.6688 116.126 37.2857C119.411 42.8681 122.696 48.4556 125.986 54.038V67.5653C125.806 72.1998 122.195 75.9415 117.796 76.2675C113.783 76.5684 109.946 73.9653 108.667 69.9477C107.338 73.865 103.632 76.5133 99.4937 76.4982C95.3607 76.4832 91.6742 73.8199 90.3651 69.8976C89.8334 70.8506 88.8103 72.4004 86.9946 73.6393C84.4065 75.4148 81.7783 75.5001 80.0228 75.5603C77.9714 75.6305 74.982 75.7258 72.0178 73.8299C68.3513 71.4775 67.2429 67.6757 66.962 66.5772C66.8868 67.4951 66.5256 70.3691 64.2034 72.7064C61.6554 75.2694 57.6178 76.3026 54.0015 74.9534C49.3118 73.2079 48.068 68.4882 47.9626 68.0719C47.1551 72.3603 43.4736 75.465 39.3507 75.5151C34.7915 75.5703 30.7438 71.8838 30.3877 67.0387C30.4328 62.65 30.483 58.2662 30.5281 53.8775L30.5431 53.8825Z" stroke="black" stroke-width="0.8" stroke-linecap="round" stroke-linejoin="round"/>
<path d="M31.6714 54.1289C62.6432 54.169 93.615 54.2142 124.587 54.2543" stroke="black" stroke-width="0.8" stroke-linecap="round" stroke-linejoin="round"/>
<path d="M47.9727 68.0776V55.4883" stroke="black" stroke-width="0.8" stroke-linecap="round" stroke-linejoin="round"/>
<path d="M66.9717 67.1895V55.207" stroke="black" stroke-width="0.8" stroke-linecap="round" stroke-linejoin="round"/>
<path d="M90.4653 70.1681V57.002" stroke="black" stroke-width="0.8" stroke-linecap="round" stroke-linejoin="round"/>
<path d="M108.672 69.9772V54.4688" stroke="black" stroke-width="0.8" stroke-linecap="round" stroke-linejoin="round"/>
<path d="M33.9785 73.9766V115.536C34.0237 115.903 34.2594 117.513 35.6638 118.626C36.4713 119.263 37.3089 119.459 37.7553 119.529H118.593C118.959 119.494 120.208 119.328 121.246 118.28C122.545 116.966 122.49 115.281 122.475 115.005V74.5132" stroke="black" stroke-width="0.8" stroke-linecap="round" stroke-linejoin="round"/>
<path d="M89.6729 83.5195V86.0775" stroke="black" stroke-width="0.8" stroke-linecap="round" stroke-linejoin="round"/>
<path d="M89.6729 86.8301V112.601" stroke="black" stroke-width="0.8" stroke-linecap="round" stroke-linejoin="round"/>
<path d="M85.6451 117.311H43.0269" stroke="black" stroke-width="0.8" stroke-linecap="round" stroke-linejoin="round"/>
<path d="M38.9395 112.661V82.4916C38.9395 80.6308 40.4492 79.1211 42.31 79.1211H86.3024C86.3576 79.1211 86.4127 79.1211 86.4679 79.1211" stroke="black" stroke-width="0.8" stroke-linecap="round" stroke-linejoin="round"/>
<path d="M115.298 79.1211H98.3046C95.9666 79.1211 94.0713 81.0163 94.0713 83.3543V113.077C94.0713 115.415 95.9666 117.31 98.3046 117.31H115.298C117.636 117.31 119.531 115.415 119.531 113.077V83.3543C119.531 81.0163 117.636 79.1211 115.298 79.1211Z" stroke="black" stroke-width="0.8" stroke-linecap="round" stroke-linejoin="round"/>
<path d="M98.9665 98.1419C99.7338 98.1419 100.356 97.5199 100.356 96.7526C100.356 95.9853 99.7338 95.3633 98.9665 95.3633C98.1992 95.3633 97.5771 95.9853 97.5771 96.7526C97.5771 97.5199 98.1992 98.1419 98.9665 98.1419Z" stroke="black" stroke-width="0.8" stroke-linecap="round" stroke-linejoin="round"/>
<path d="M20.3262 120.932C20.4817 117.316 20.5569 113.559 20.5419 109.672C20.5318 107.239 20.4817 104.862 20.4014 102.544C20.3563 102.028 20.3061 100.654 21.2089 99.7959C21.6202 99.4046 22.0767 99.2692 22.7187 99.1187C25.1412 98.562 27.2528 98.5219 28.1005 98.5119C29.0083 98.5018 30.182 98.5018 31.5563 98.5319C31.8271 98.5469 32.6698 98.6322 33.387 99.2943C33.8083 99.6855 34.0139 100.112 34.1143 100.373C35.0522 103.131 35.9601 106.116 36.7977 109.311C37.6504 112.576 38.3275 115.691 38.8641 118.615C38.9243 118.916 38.9845 119.387 38.8992 119.959C38.8491 120.29 38.7889 120.676 38.5331 121.067C38.1268 121.679 37.4898 121.905 37.214 121.985C34.7513 122.447 31.9375 122.818 28.8278 122.978C26.3801 123.104 24.113 123.079 22.0566 122.968C21.9061 122.943 21.2641 122.833 20.7876 122.246C20.3463 121.699 20.3362 121.102 20.3362 120.937L20.3262 120.932Z" fill="#C9C8C8"/>
<path d="M20.3862 101.777C20.0853 104.451 19.6841 107.265 19.1675 110.199C18.7462 112.591 18.2747 114.883 17.7731 117.06C17.7229 117.291 17.6377 117.647 17.5223 118.078C17.1812 119.337 16.9906 119.628 17.0809 120.065C17.1361 120.335 17.3067 120.671 18.1844 121.278C18.8314 121.725 19.8847 122.337 21.3894 122.743" fill="#C9C8C8"/>
<path d="M32.3888 109.28L32.474 110.635C32.4891 110.85 32.3236 111.041 32.1029 111.056L30.9392 111.131C30.7235 111.146 30.558 111.332 30.5681 111.552L30.6433 112.716C30.6584 112.932 30.4928 113.122 30.2722 113.137L28.9179 113.223C28.7022 113.238 28.5116 113.072 28.4966 112.851L28.4213 111.678C28.4063 111.462 28.2207 111.297 28 111.307L26.8264 111.382C26.6107 111.397 26.4201 111.231 26.405 111.011L26.3198 109.656C26.3048 109.441 26.4703 109.25 26.691 109.235L28.0452 109.15C28.2608 109.135 28.4515 109.3 28.4665 109.521L28.5417 110.695C28.5568 110.91 28.7424 111.076 28.9631 111.066L29.9461 111.001C30.1618 110.986 30.3273 110.8 30.3173 110.579L30.242 109.416C30.227 109.2 30.3925 109.009 30.6132 108.994L31.9675 108.909C32.1831 108.894 32.3737 109.06 32.3888 109.28Z" fill="black"/>
<path d="M32.1381 119.147C32.6848 117.643 34.3149 117.106 34.5607 117.031C35.0371 116.885 36.4566 116.444 37.1036 117.196C37.545 117.708 37.4297 118.551 37.1739 119.072C36.7726 119.905 35.8999 120.171 34.987 120.452C34.4905 120.602 32.5795 121.184 32.0629 120.426C31.8071 120.05 32.0027 119.504 32.1331 119.142L32.1381 119.147Z" fill="white"/>
<path d="M34.2248 114.848C33.9389 114.185 34.2248 113.278 34.937 112.992C35.4687 112.781 36.1408 112.957 36.4117 113.373C36.8982 114.125 36.0255 115.62 35.1778 115.605C34.7465 115.6 34.3803 115.199 34.2299 114.842L34.2248 114.848Z" fill="white"/>
<path d="M20.3262 120.932C20.4817 117.316 20.5569 113.559 20.5419 109.672C20.5318 107.239 20.4817 104.862 20.4014 102.544C20.3563 102.028 20.3061 100.654 21.2089 99.7959C21.6202 99.4046 22.0767 99.2692 22.7187 99.1187C25.1412 98.562 27.2528 98.5219 28.1005 98.5119C29.0083 98.5018 30.182 98.5018 31.5563 98.5319C31.8271 98.5469 32.6698 98.6322 33.387 99.2943C33.8083 99.6855 34.0139 100.112 34.1143 100.373C35.0522 103.131 35.9601 106.116 36.7977 109.311C37.6504 112.576 38.3275 115.691 38.8641 118.615C38.9243 118.916 38.9845 119.387 38.8992 119.959C38.8491 120.29 38.7889 120.676 38.5331 121.067C38.1268 121.679 37.4898 121.905 37.214 121.985C34.7513 122.447 31.9375 122.818 28.8278 122.978C26.3801 123.104 24.113 123.079 22.0566 122.968C21.9061 122.943 21.2641 122.833 20.7876 122.246C20.3463 121.699 20.3362 121.102 20.3362 120.937L20.3262 120.932Z" stroke="black" stroke-width="0.8" stroke-linecap="round" stroke-linejoin="round"/>
<path d="M20.3862 101.777C20.0853 104.451 19.6841 107.265 19.1675 110.199C18.7462 112.591 18.2747 114.883 17.7731 117.06C17.7229 117.291 17.6377 117.647 17.5223 118.078C17.1812 119.337 16.9906 119.628 17.0809 120.065C17.1361 120.335 17.3067 120.671 18.1844 121.278C18.8314 121.725 19.8847 122.337 21.3894 122.743" stroke="black" stroke-width="0.8" stroke-linecap="round" stroke-linejoin="round"/>
<path d="M32.3888 109.28L32.474 110.635C32.4891 110.85 32.3236 111.041 32.1029 111.056L30.9392 111.131C30.7235 111.146 30.558 111.332 30.5681 111.552L30.6433 112.716C30.6584 112.932 30.4928 113.122 30.2722 113.137L28.9179 113.223C28.7022 113.238 28.5116 113.072 28.4966 112.851L28.4213 111.678C28.4063 111.462 28.2207 111.297 28 111.307L26.8264 111.382C26.6107 111.397 26.4201 111.231 26.405 111.011L26.3198 109.656C26.3048 109.441 26.4703 109.25 26.691 109.235L28.0452 109.15C28.2608 109.135 28.4515 109.3 28.4665 109.521L28.5417 110.695C28.5568 110.91 28.7424 111.076 28.9631 111.066L29.9461 111.001C30.1618 110.986 30.3273 110.8 30.3173 110.579L30.242 109.416C30.227 109.2 30.3925 109.009 30.6132 108.994L31.9675 108.909C32.1831 108.894 32.3737 109.06 32.3888 109.28Z" stroke="black" stroke-width="0.8" stroke-linecap="round" stroke-linejoin="round"/>
<path d="M24.9103 102.063C23.5811 100.589 23.3605 98.5974 24.2432 97.2883C24.7699 96.5109 25.7028 95.9441 26.7109 95.8889C28.321 95.8036 29.3692 97.0626 29.7554 97.524C30.7937 98.7679 30.889 100.177 30.894 100.684" stroke="black" stroke-width="0.8" stroke-linecap="round" stroke-linejoin="round"/>
<path d="M24.8903 102.586C25.1784 102.586 25.4119 102.353 25.4119 102.065C25.4119 101.777 25.1784 101.543 24.8903 101.543C24.6022 101.543 24.3687 101.777 24.3687 102.065C24.3687 102.353 24.6022 102.586 24.8903 102.586Z" stroke="black" stroke-width="0.8" stroke-linecap="round" stroke-linejoin="round"/>
<path d="M30.8991 101.325C31.1872 101.325 31.4207 101.091 31.4207 100.803C31.4207 100.515 31.1872 100.281 30.8991 100.281C30.611 100.281 30.3774 100.515 30.3774 100.803C30.3774 101.091 30.611 101.325 30.8991 101.325Z" stroke="black" stroke-width="0.8" stroke-linecap="round" stroke-linejoin="round"/>
</svg>
