<svg width="24" height="24" viewBox="0 0 24 24" fill="none" xmlns="http://www.w3.org/2000/svg">
<path opacity="0.4" d="M7.81098 2.00098H16.181C19.831 2.00098 22.001 4.17098 22.001 7.81098V16.181C22.001 19.821 19.831 21.991 16.191 21.991H7.81098C4.17098 22.001 2.00098 19.831 2.00098 16.191V7.81098C2.00098 4.17098 4.17098 2.00098 7.81098 2.00098Z" fill="#CCC8C8"/>
<path d="M5.47 11.4714L9.76 7.18137C10.05 6.89137 10.53 6.89137 10.82 7.18137C11.11 7.47137 11.11 7.95137 10.82 8.24137L7.81 11.2514H18C18.41 11.2514 18.75 11.5914 18.75 12.0014C18.75 12.4114 18.41 12.7514 18 12.7514H7.81L10.82 15.7614C11.11 16.0514 11.11 16.5314 10.82 16.8214C10.67 16.9714 10.48 17.0414 10.29 17.0414C10.1 17.0414 9.91 16.9714 9.76 16.8214L5.47 12.5314C5.33 12.3914 5.25 12.2014 5.25 12.0014C5.25 11.8014 5.33 11.6114 5.47 11.4714Z" fill="#B4AAAA"/>
</svg>
