<svg width="24" height="24" viewBox="0 0 24 24" fill="none" xmlns="http://www.w3.org/2000/svg">
<path d="M22 19V22H2V19C2 18.45 2.45 18 3 18H21C21.55 18 22 18.45 22 19Z" fill="#475467" stroke="#475467" stroke-width="1.5" stroke-miterlimit="10" stroke-linecap="round" stroke-linejoin="round"/>
<path opacity="0.6" d="M7.25 11.75V17.25H4.75V11.75H7.25Z" fill="#475467" stroke="#475467" stroke-width="1.5"/>
<path opacity="0.4" d="M11.25 11.75V17.25H8.75V11.75H11.25Z" fill="#475467" stroke="#475467" stroke-width="1.5"/>
<path opacity="0.6" d="M15.25 11.75V17.25H12.75V11.75H15.25Z" fill="#475467" stroke="#475467" stroke-width="1.5"/>
<path opacity="0.4" d="M19.25 11.75V17.25H16.75V11.75H19.25Z" fill="#475467" stroke="#475467" stroke-width="1.5"/>
<mask id="path-6-inside-1_1240_8639" fill="white">
<path d="M23 22.75H1C0.59 22.75 0.25 22.41 0.25 22C0.25 21.59 0.59 21.25 1 21.25H23C23.41 21.25 23.75 21.59 23.75 22C23.75 22.41 23.41 22.75 23 22.75Z"/>
</mask>
<path d="M23 22.75H1C0.59 22.75 0.25 22.41 0.25 22C0.25 21.59 0.59 21.25 1 21.25H23C23.41 21.25 23.75 21.59 23.75 22C23.75 22.41 23.41 22.75 23 22.75Z" fill="#475467"/>
<path d="M23 22.75V21.25H1V22.75V24.25H23V22.75ZM1 22.75V21.25C1.41843 21.25 1.75 21.5816 1.75 22H0.25H-1.25C-1.25 23.2384 -0.238427 24.25 1 24.25V22.75ZM0.25 22H1.75C1.75 22.4184 1.41843 22.75 1 22.75V21.25V19.75C-0.238427 19.75 -1.25 20.7616 -1.25 22H0.25ZM1 21.25V22.75H23V21.25V19.75H1V21.25ZM23 21.25V22.75C22.5816 22.75 22.25 22.4184 22.25 22H23.75H25.25C25.25 20.7616 24.2384 19.75 23 19.75V21.25ZM23.75 22H22.25C22.25 21.5816 22.5816 21.25 23 21.25V22.75V24.25C24.2384 24.25 25.25 23.2384 25.25 22H23.75Z" fill="#475467" mask="url(#path-6-inside-1_1240_8639)"/>
<path d="M12.0811 2.8457C12.1035 2.84929 12.1056 2.85218 12.0918 2.84668L21.0918 6.44629C21.1039 6.4513 21.1499 6.47916 21.1953 6.5459C21.241 6.61322 21.2499 6.66669 21.25 6.67969V10C21.2499 10.1357 21.1357 10.25 21 10.25H3C2.86427 10.25 2.7501 10.1357 2.75 10V6.67969C2.75005 6.66669 2.75897 6.61322 2.80469 6.5459C2.85013 6.47916 2.8961 6.4513 2.9082 6.44629L11.9082 2.84668C11.8944 2.85218 11.8965 2.84929 11.9189 2.8457C11.94 2.84237 11.9683 2.83984 12 2.83984C12.0317 2.83984 12.06 2.84237 12.0811 2.8457ZM12 4.75C10.7558 4.75 9.75 5.75579 9.75 7C9.7501 8.24413 10.7558 9.25 12 9.25C13.2442 9.25 14.2499 8.24413 14.25 7C14.25 5.75579 13.2442 4.75 12 4.75Z" fill="#475467" stroke="#475467" stroke-width="1.5"/>
</svg>
