<svg width="16" height="17" viewBox="0 0 16 17" fill="none" xmlns="http://www.w3.org/2000/svg">
<path d="M14.6463 12.998C14.6463 13.238 14.593 13.4847 14.4797 13.7247C14.3663 13.9647 14.2197 14.1913 14.0263 14.4047C13.6997 14.7647 13.3397 15.0247 12.933 15.1913C12.533 15.358 12.0997 15.4447 11.633 15.4447C10.953 15.4447 10.2263 15.2847 9.45967 14.958C8.69301 14.6313 7.92634 14.1913 7.16634 13.638C6.39967 13.078 5.67301 12.458 4.97967 11.7713C4.29301 11.078 3.67301 10.3513 3.11967 9.59133C2.57301 8.83133 2.13301 8.07133 1.81301 7.318C1.49301 6.558 1.33301 5.83133 1.33301 5.13799C1.33301 4.68466 1.41301 4.25133 1.57301 3.85133C1.73301 3.44466 1.98634 3.07133 2.33967 2.73799C2.76634 2.31799 3.23301 2.11133 3.72634 2.11133C3.91301 2.11133 4.09967 2.15133 4.26634 2.23133C4.43967 2.31133 4.59301 2.43133 4.71301 2.60466L6.25967 4.78466C6.37967 4.95133 6.46634 5.10466 6.52634 5.25133C6.58634 5.39133 6.61967 5.53133 6.61967 5.658C6.61967 5.818 6.57301 5.97799 6.47967 6.13133C6.39301 6.28466 6.26634 6.44466 6.10634 6.60466L5.59967 7.13133C5.52634 7.20466 5.49301 7.29133 5.49301 7.398C5.49301 7.45133 5.49967 7.49799 5.51301 7.55133C5.53301 7.60466 5.55301 7.64466 5.56634 7.68466C5.68634 7.90466 5.89301 8.19133 6.18634 8.538C6.48634 8.88466 6.80634 9.238 7.15301 9.59133C7.51301 9.94466 7.85967 10.2713 8.21301 10.5713C8.55967 10.8647 8.84634 11.0647 9.07301 11.1847C9.10634 11.198 9.14634 11.218 9.19301 11.238C9.24634 11.258 9.29967 11.2647 9.35967 11.2647C9.47301 11.2647 9.55967 11.2247 9.63301 11.1513L10.1397 10.6513C10.3063 10.4847 10.4663 10.358 10.6197 10.278C10.773 10.1847 10.9263 10.138 11.093 10.138C11.2197 10.138 11.353 10.1647 11.4997 10.2247C11.6463 10.2847 11.7997 10.3713 11.9663 10.4847L14.173 12.0513C14.3463 12.1713 14.4663 12.3113 14.5397 12.478C14.6063 12.6447 14.6463 12.8113 14.6463 12.998Z" stroke="#866F6E" stroke-width="1.5" stroke-miterlimit="10"/>
</svg>
