<svg width="24" height="25" viewBox="0 0 24 25" fill="none" xmlns="http://www.w3.org/2000/svg">
<path opacity="0.4" d="M3.99085 15.4377L2.47086 13.9178C1.85086 13.2978 1.85086 12.2777 2.47086 11.6577L3.99085 10.1377C4.25085 9.87773 4.46085 9.36772 4.46085 9.00772V6.85776C4.46085 5.97776 5.18086 5.25772 6.06086 5.25772H8.21085C8.57085 5.25772 9.08085 5.04775 9.34085 4.78775L10.8608 3.26773C11.4808 2.64773 12.5009 2.64773 13.1209 3.26773L14.6409 4.78775C14.9009 5.04775 15.4108 5.25772 15.7708 5.25772H17.9209C18.8009 5.25772 19.5208 5.97776 19.5208 6.85776V9.00772C19.5208 9.36772 19.7308 9.87773 19.9908 10.1377L21.5109 11.6577C22.1309 12.2777 22.1309 13.2978 21.5109 13.9178L19.9908 15.4377C19.7308 15.6977 19.5208 16.2077 19.5208 16.5677V18.7177C19.5208 19.5977 18.8009 20.3177 17.9209 20.3177H15.7708C15.4108 20.3177 14.9009 20.5278 14.6409 20.7878L13.1209 22.3078C12.5009 22.9278 11.4808 22.9278 10.8608 22.3078L9.34085 20.7878C9.08085 20.5278 8.57085 20.3177 8.21085 20.3177H6.06086C5.18086 20.3177 4.46085 19.5977 4.46085 18.7177V16.5677C4.46085 16.1977 4.25085 15.6877 3.99085 15.4377Z" fill="#8F4400"/>
<path d="M15.0002 16.7773C14.4402 16.7773 13.9902 16.3273 13.9902 15.7773C13.9902 15.2273 14.4402 14.7773 14.9902 14.7773C15.5402 14.7773 15.9902 15.2273 15.9902 15.7773C15.9902 16.3273 15.5502 16.7773 15.0002 16.7773Z" fill="#8F4400"/>
<path d="M9.01001 10.7773C8.45001 10.7773 8 10.3273 8 9.77734C8 9.22734 8.45 8.77734 9 8.77734C9.55 8.77734 10 9.22734 10 9.77734C10 10.3273 9.56001 10.7773 9.01001 10.7773Z" fill="#8F4400"/>
<path d="M8.99945 16.5268C8.80945 16.5268 8.61945 16.4569 8.46945 16.3069C8.17945 16.0169 8.17945 15.5368 8.46945 15.2468L14.4695 9.2468C14.7595 8.9568 15.2395 8.9568 15.5295 9.2468C15.8195 9.5368 15.8195 10.0169 15.5295 10.3069L9.52945 16.3069C9.37945 16.4569 9.18945 16.5268 8.99945 16.5268Z" fill="#8F4400"/>
</svg>
