<svg width="17" height="16" viewBox="0 0 17 16" fill="none" xmlns="http://www.w3.org/2000/svg">
<path d="M6.44727 9.55258C6.44727 10.4126 7.10727 11.1059 7.92727 11.1059H9.6006C10.3139 11.1059 10.8939 10.4992 10.8939 9.75258C10.8939 8.93924 10.5406 8.65258 10.0139 8.46591L7.32727 7.53258C6.8006 7.34591 6.44727 7.05924 6.44727 6.24591C6.44727 5.49924 7.02727 4.89258 7.7406 4.89258H9.41393C10.2339 4.89258 10.8939 5.58591 10.8939 6.44591" stroke="#8F4400" stroke-linecap="round" stroke-linejoin="round"/>
<path d="M8.66602 4V12" stroke="#8F4400" stroke-linecap="round" stroke-linejoin="round"/>
<path d="M8.66667 14.6673C12.3486 14.6673 15.3333 11.6825 15.3333 8.00065C15.3333 4.31875 12.3486 1.33398 8.66667 1.33398C4.98477 1.33398 2 4.31875 2 8.00065C2 11.6825 4.98477 14.6673 8.66667 14.6673Z" stroke="#8F4400" stroke-linecap="round" stroke-linejoin="round"/>
</svg>
