<svg width="16" height="16" viewBox="0 0 16 16" fill="none" xmlns="http://www.w3.org/2000/svg">
<path opacity="0.4" d="M14.1671 6.10003C13.8404 5.58003 13.4671 5.11336 13.0804 4.69336L10.5671 7.20669C10.6471 7.45336 10.6937 7.72003 10.6937 8.00003C10.6937 9.49336 9.48706 10.6934 8.00039 10.6934C7.72039 10.6934 7.45372 10.6467 7.20706 10.5667L4.90039 12.8734C5.87372 13.42 6.92706 13.7067 8.00039 13.7067C9.18706 13.7067 10.3404 13.36 11.3937 12.7134C12.4471 12.06 13.3937 11.1067 14.1671 9.89336C14.8337 8.85336 14.8337 7.14669 14.1671 6.10003Z" fill="#98A2B3"/>
<path d="M9.34708 6.65375L6.65375 9.34708C6.31375 9.00042 6.09375 8.52042 6.09375 8.00042C6.09375 6.95375 6.94708 6.09375 8.00042 6.09375C8.52042 6.09375 9.00042 6.31375 9.34708 6.65375Z" fill="#98A2B3"/>
<path opacity="0.4" d="M12.1673 3.83378L9.90732 6.09378C9.42065 5.60044 8.74732 5.30711 8.00065 5.30711C6.50732 5.30711 5.30732 6.51378 5.30732 8.00044C5.30732 8.74711 5.60732 9.42044 6.09398 9.90711L3.84065 12.1671H3.83398C3.09398 11.5671 2.41398 10.8004 1.83398 9.89378C1.16732 8.84711 1.16732 7.14711 1.83398 6.10044C2.60732 4.88711 3.55398 3.93378 4.60732 3.28044C5.66065 2.64044 6.81398 2.28711 8.00065 2.28711C9.48732 2.28711 10.9273 2.83378 12.1673 3.83378Z" fill="#98A2B3"/>
<path d="M9.90672 8.00005C9.90672 9.04672 9.05339 9.90672 8.00005 9.90672C7.96005 9.90672 7.92672 9.90672 7.88672 9.89339L9.89339 7.88672C9.90672 7.92672 9.90672 7.96005 9.90672 8.00005Z" fill="#98A2B3"/>
<path d="M14.5126 1.48594C14.3126 1.28594 13.9859 1.28594 13.7859 1.48594L1.48594 13.7926C1.28594 13.9926 1.28594 14.3193 1.48594 14.5193C1.58594 14.6126 1.7126 14.6659 1.84594 14.6659C1.97927 14.6659 2.10594 14.6126 2.20594 14.5126L14.5126 2.20594C14.7193 2.00594 14.7193 1.68594 14.5126 1.48594Z" fill="#98A2B3"/>
</svg>
