<svg width="40" height="41" viewBox="0 0 40 41" fill="none" xmlns="http://www.w3.org/2000/svg">
<path fill-rule="evenodd" clip-rule="evenodd" d="M21.3653 40.5H2.20769C0.98806 40.5 0 39.5113 0 38.2922V2.70768C0 1.48821 0.988215 0.5 2.20769 0.5H37.7925C39.0116 0.5 40 1.48821 40 2.70768V38.2922C40 39.5115 39.0115 40.5 37.7925 40.5H27.5994V25.0098H32.7988L33.5773 18.973H27.5994V15.1189C27.5994 13.3711 28.0848 12.18 30.5911 12.18L33.7878 12.1786V6.77925C33.2349 6.70568 31.3373 6.54131 29.1296 6.54131C24.5207 6.54131 21.3653 9.35461 21.3653 14.521V18.973H16.1526V25.0098H21.3653V40.5Z" fill="#4460A0"/>
</svg>
