<svg width="40" height="41" viewBox="0 0 40 41" fill="none" xmlns="http://www.w3.org/2000/svg">
<path d="M37.5 20.5C37.5 10.835 29.665 3 20 3C10.335 3 2.5 10.835 2.5 20.5C2.5 30.165 10.335 38 20 38C29.665 38 37.5 30.165 37.5 20.5Z" fill="#1275B1"/>
<path d="M15.7732 12.6152C15.7732 13.7834 14.7606 14.7304 13.5116 14.7304C12.2626 14.7304 11.25 13.7834 11.25 12.6152C11.25 11.447 12.2626 10.5 13.5116 10.5C14.7606 10.5 15.7732 11.447 15.7732 12.6152Z" fill="white"/>
<path d="M11.5586 16.2852H15.4246V28H11.5586V16.2852Z" fill="white"/>
<path d="M21.6512 16.2848H17.7852V27.9997H21.6512C21.6512 27.9997 21.6512 24.3117 21.6512 22.0058C21.6512 20.6217 22.1238 19.2316 24.0094 19.2316C26.1404 19.2316 26.1277 21.0428 26.1177 22.4461C26.1047 24.2802 26.1357 26.1521 26.1357 27.9997H30.0017V21.8168C29.9689 17.8689 28.9402 16.0498 25.5558 16.0498C23.5459 16.0498 22.3 16.9623 21.6512 17.7878V16.2848Z" fill="white"/>
</svg>
