<svg width="25" height="24" viewBox="0 0 25 24" fill="none" xmlns="http://www.w3.org/2000/svg">
<path d="M14.4868 0.174109C14.6466 0.187354 14.7595 0.161822 14.7903 0.108179C14.8147 0.0623991 14.9611 0.0118766 15.1046 0.00503302C15.2474 -0.00897367 15.5229 0.00739228 15.7062 0.0400257C16.0281 0.0880051 16.0366 0.101631 16.0774 0.372428C16.1013 0.543642 16.0344 1.04194 15.914 1.58165C15.7979 2.09202 15.6173 2.75334 15.4959 3.06174C15.3817 3.36943 15.1624 3.78145 15.0013 3.97804C14.8403 4.17462 14.5248 4.4876 14.3116 4.6676C14.0907 4.84113 13.741 5.09961 13.5373 5.22806C13.3336 5.35652 12.802 5.59669 12.3633 5.75542C11.9247 5.91415 11.1211 6.17376 10.5811 6.32797C10.0404 6.47502 9.49974 6.62207 9.38621 6.64043C9.26623 6.66667 9.13476 6.72295 9.08897 6.77083C9.04248 6.81155 8.98676 6.83148 8.96969 6.80423C8.94478 6.77051 8.9923 6.59229 9.06698 6.39695C9.14096 6.19444 9.20744 5.84081 9.21298 5.60162C9.21852 5.36244 9.28082 4.96583 9.34347 4.72104C9.40613 4.47626 9.55131 4.04259 9.65976 3.74992C9.77605 3.46372 9.99193 3.01588 10.1474 2.76199C10.2957 2.5088 10.6079 2.08767 10.8355 1.83394C11.063 1.58021 11.3406 1.32158 11.4571 1.25953C11.5664 1.19819 11.9594 1.015 12.3181 0.849651C12.6775 0.691461 13.1134 0.504078 13.2877 0.443591C13.462 0.383104 13.7227 0.321376 13.8655 0.307369C14.0076 0.286199 14.1547 0.24284 14.1805 0.211386C14.2062 0.179933 14.349 0.165926 14.4868 0.174109Z" fill="#FFFFFF"/>
<path d="M23.697 7.81404C23.7655 7.95962 23.844 8.04493 23.9057 8.0449C23.9574 8.04319 24.0742 8.14523 24.1518 8.26653C24.2353 8.38365 24.3589 8.6313 24.4225 8.80701C24.542 9.11073 24.5345 9.12496 24.3212 9.29581C24.1854 9.40218 23.7221 9.59325 23.1962 9.75842C22.6978 9.9127 22.0368 10.0863 21.7101 10.135C21.3875 10.1896 20.9223 10.205 20.6722 10.1633C20.422 10.1216 19.9942 10.0038 19.7324 9.90854C19.4722 9.80324 19.0743 9.62856 18.8616 9.5157C18.6489 9.40284 18.1759 9.06083 17.8196 8.75891C17.4634 8.457 16.8376 7.88827 16.4345 7.496C16.0373 7.09955 15.6401 6.70309 15.5675 6.61358C15.4848 6.52241 15.3705 6.43627 15.3063 6.42041C15.248 6.40036 15.2029 6.36189 15.2179 6.33342C15.2345 6.29492 15.412 6.24711 15.6179 6.21436C15.8296 6.17741 16.168 6.05838 16.3772 5.9436C16.5863 5.82883 16.9597 5.68467 17.2022 5.61674C17.4447 5.54881 17.8915 5.45817 18.1982 5.40611C18.5033 5.36409 18.9977 5.32782 19.2945 5.33602C19.5871 5.33836 20.1065 5.39916 20.4392 5.4701C20.7719 5.54105 21.1339 5.65298 21.2457 5.72322C21.3533 5.78759 21.7078 6.03762 22.0298 6.26674C22.346 6.50006 22.7256 6.78522 22.865 6.90649C23.0043 7.02776 23.1879 7.22348 23.2714 7.3406C23.3607 7.45353 23.4717 7.55975 23.5117 7.56642C23.5517 7.57309 23.6352 7.69021 23.697 7.81404Z" fill="#FFFFFF"/>
<path d="M21.7103 19.6399C21.6189 19.7723 21.5845 19.8831 21.6154 19.9367C21.6427 19.9808 21.6131 20.1334 21.5472 20.2615C21.4879 20.3926 21.3361 20.6239 21.2162 20.767C21.0139 21.0227 20.9979 21.0233 20.7438 20.9234C20.5842 20.8585 20.1876 20.5513 19.7822 20.1768C19.3999 19.8207 18.9196 19.333 18.7142 19.0733C18.5058 18.8202 18.26 18.4235 18.1709 18.1852C18.0818 17.9469 17.9695 17.5162 17.9207 17.2409C17.8815 16.9621 17.8333 16.529 17.8243 16.2876C17.8154 16.0463 17.8739 15.4641 17.9563 15.0035C18.0387 14.5429 18.2165 13.7145 18.3534 13.168C18.4969 12.6245 18.6403 12.081 18.6813 11.9731C18.7186 11.8557 18.7358 11.7133 18.7174 11.6496C18.7055 11.5888 18.7161 11.5304 18.7482 11.5292C18.7897 11.5244 18.9197 11.6548 19.0509 11.8174C19.1887 11.983 19.4606 12.2176 19.6642 12.342C19.8678 12.4664 20.1788 12.7188 20.3587 12.8957C20.5386 13.0726 20.8402 13.4156 21.0385 13.6562C21.2273 13.9004 21.5057 14.3119 21.6471 14.574C21.7914 14.8296 21.9986 15.3115 22.1038 15.6362C22.2089 15.9608 22.2933 16.3314 22.2886 16.4637C22.2868 16.5894 22.2484 17.0226 22.2117 17.4171C22.1685 17.8086 22.1122 18.2811 22.0773 18.4629C22.0423 18.6447 21.9652 18.9021 21.9059 19.0332C21.8532 19.1673 21.817 19.3169 21.8312 19.355C21.8455 19.3932 21.7862 19.5243 21.7103 19.6399Z" fill="#FFFFFF"/>
<path d="M10.5132 23.8259C10.3534 23.8126 10.2405 23.8382 10.2097 23.8918C10.1853 23.9376 10.0389 23.9881 9.89541 23.995C9.75262 24.009 9.47713 23.9926 9.29376 23.96C8.97194 23.912 8.96341 23.8984 8.92263 23.6276C8.89875 23.4564 8.96555 22.9581 9.08599 22.4183C9.20208 21.908 9.38275 21.2467 9.50408 20.9383C9.61828 20.6306 9.83764 20.2185 9.99869 20.022C10.1597 19.8254 10.4752 19.5124 10.6884 19.3324C10.9093 19.1589 11.259 18.9004 11.4627 18.7719C11.6664 18.6435 12.198 18.4033 12.6367 18.2446C13.0753 18.0859 13.8789 17.8262 14.4189 17.672C14.9596 17.525 15.5003 17.3779 15.6138 17.3596C15.7338 17.3333 15.8652 17.2771 15.911 17.2292C15.9575 17.1885 16.0132 17.1685 16.0303 17.1958C16.0552 17.2295 16.0077 17.4077 15.933 17.6031C15.859 17.8056 15.7926 18.1592 15.787 18.3984C15.7815 18.6376 15.7192 19.0342 15.6565 19.279C15.5939 19.5237 15.4487 19.9574 15.3402 20.2501C15.224 20.5363 15.0081 20.9841 14.8526 21.238C14.7043 21.4912 14.3921 21.9123 14.1645 22.1661C13.937 22.4198 13.6594 22.6784 13.5429 22.7405C13.4336 22.8018 13.0406 22.985 12.6819 23.1503C12.3225 23.3085 11.8866 23.4959 11.7123 23.5564C11.538 23.6169 11.2773 23.6786 11.1345 23.6926C10.9924 23.7138 10.8453 23.7572 10.8195 23.7886C10.7938 23.8201 10.651 23.8341 10.5132 23.8259Z" fill="#FFFFFF"/>
<path d="M1.30297 16.186C1.23447 16.0404 1.15602 15.9551 1.09433 15.9551C1.04264 15.9568 0.925826 15.8548 0.848177 15.7335C0.764696 15.6164 0.641072 15.3687 0.577543 15.193C0.458034 14.8893 0.465524 14.875 0.678782 14.7042C0.814571 14.5978 1.27792 14.4067 1.80381 14.2416C2.30221 14.0873 2.96315 13.9137 3.28991 13.865C3.61249 13.8104 4.07767 13.795 4.32782 13.8367C4.57796 13.8784 5.00576 13.9962 5.26762 14.0915C5.52783 14.1968 5.92567 14.3714 6.13837 14.4843C6.35107 14.5972 6.82409 14.9392 7.18037 15.2411C7.53664 15.543 8.16245 16.1117 8.5655 16.504C8.96271 16.9005 9.35993 17.2969 9.43254 17.3864C9.51517 17.4776 9.62946 17.5637 9.69367 17.5796C9.75205 17.5996 9.7971 17.6381 9.78213 17.6666C9.76549 17.7051 9.58796 17.7529 9.38207 17.7856C9.17035 17.8226 8.83199 17.9416 8.62285 18.0564C8.4137 18.1712 8.04035 18.3153 7.79781 18.3833C7.55528 18.4512 7.10851 18.5418 6.80176 18.5939C6.49668 18.6359 6.00234 18.6722 5.70554 18.664C5.41291 18.6616 4.89347 18.6008 4.56076 18.5299C4.22805 18.459 3.86613 18.347 3.75434 18.2768C3.64674 18.2124 3.29218 17.9624 2.97016 17.7333C2.65397 17.4999 2.27437 17.2148 2.13503 17.0935C1.99568 16.9722 1.81208 16.7765 1.7286 16.6594C1.63929 16.5465 1.52831 16.4402 1.48829 16.4336C1.44826 16.4269 1.36478 16.3098 1.30297 16.186Z" fill="#FFFFFF"/>
<path d="M3.28974 4.36007C3.3811 4.22774 3.41549 4.11689 3.38461 4.06328C3.3573 4.01921 3.38693 3.86665 3.45277 3.7385C3.51208 3.60738 3.66394 3.3761 3.78379 3.23302C3.98609 2.97727 4.00212 2.97667 4.25616 3.07662C4.41582 3.14147 4.81236 3.44869 5.21782 3.82323C5.60013 4.17932 6.0804 4.66703 6.28582 4.9267C6.49421 5.17981 6.74003 5.5765 6.82912 5.81478C6.91821 6.05307 7.03051 6.4838 7.07925 6.75906C7.11851 7.03789 7.1667 7.47105 7.17568 7.71236C7.18465 7.95368 7.12606 8.53586 7.0437 8.9965C6.96134 9.45715 6.78354 10.2855 6.6466 10.832C6.50313 11.3755 6.35967 11.919 6.31875 12.0269C6.28139 12.1443 6.26422 12.2867 6.28264 12.3504C6.29453 12.4112 6.28386 12.4696 6.25181 12.4708C6.21027 12.4756 6.08026 12.3452 5.94905 12.1826C5.81132 12.017 5.53943 11.7824 5.33583 11.658C5.13223 11.5336 4.82117 11.2812 4.64129 11.1043C4.46141 10.9274 4.15982 10.5844 3.96153 10.3438C3.77273 10.0996 3.49426 9.68806 3.35294 9.42597C3.20864 9.17044 3.00138 8.68852 2.89624 8.36384C2.79109 8.03917 2.70671 7.6686 2.71142 7.53632C2.71316 7.41059 2.75162 6.97738 2.7883 6.58291C2.83151 6.19141 2.88775 5.71886 2.92271 5.53711C2.95768 5.35535 3.03476 5.09789 3.09407 4.96677C3.14685 4.83267 3.18301 4.68309 3.16875 4.64497C3.1545 4.60684 3.21381 4.47572 3.28974 4.36007Z" fill="#FFFFFF"/>
</svg>
