<svg width="16" height="16" viewBox="0 0 16 16" fill="none" xmlns="http://www.w3.org/2000/svg">
<path d="M7.1 12.7399V3.25988C7.1 2.35988 6.72 1.99988 5.76 1.99988H3.34C2.38 1.99988 2 2.35988 2 3.25988V12.7399C2 13.6399 2.38 13.9999 3.34 13.9999H5.76C6.72 13.9999 7.1 13.6399 7.1 12.7399Z" stroke="#6A5554" stroke-width="1.5" stroke-linecap="round" stroke-linejoin="round"/>
<path d="M14.0004 12.7399V3.25988C14.0004 2.35988 13.6204 1.99988 12.6604 1.99988H10.2404C9.28706 1.99988 8.90039 2.35988 8.90039 3.25988V12.7399C8.90039 13.6399 9.28039 13.9999 10.2404 13.9999H12.6604C13.6204 13.9999 14.0004 13.6399 14.0004 12.7399Z" stroke="#6A5554" stroke-width="1.5" stroke-linecap="round" stroke-linejoin="round"/>
</svg>
