<svg width="120" height="120" viewBox="0 0 120 120" fill="none" xmlns="http://www.w3.org/2000/svg">
<path d="M40.4494 58.1494H16.9994C17.3994 34.7994 21.9994 30.9493 36.3494 22.4493C37.9994 21.4493 38.5493 19.3493 37.5493 17.6493C36.5493 15.9993 34.4492 15.4494 32.7492 16.4494C15.8492 26.4494 9.94922 32.5493 9.94922 61.6493V88.5993C9.94922 97.1493 16.8994 104.049 25.3994 104.049H40.3994C49.1994 104.049 55.8492 97.3993 55.8492 88.5993V73.5993C55.8992 64.7993 49.2494 58.1494 40.4494 58.1494Z" fill="white"/>
<path opacity="0.4" d="M94.5507 58.1494H71.1006C71.5006 34.7994 76.1009 30.9493 90.4509 22.4493C92.1009 21.4493 92.6509 19.3493 91.6509 17.6493C90.6509 15.9993 88.5508 15.4494 86.8508 16.4494C69.9508 26.4494 64.0508 32.5493 64.0508 61.6493V88.5993C64.0508 97.1493 71.0009 104.049 79.5009 104.049H94.5009C103.301 104.049 109.951 97.3993 109.951 88.5993V73.5993C110.001 64.7993 103.351 58.1494 94.5507 58.1494Z" fill="white"/>
</svg>
