<svg width="16" height="17" viewBox="0 0 16 17" fill="none" xmlns="http://www.w3.org/2000/svg">
<path d="M13.8609 9.1815C14.0237 9.042 14.105 8.97225 14.1348 8.88925C14.161 8.8164 14.161 8.73672 14.1348 8.66387C14.105 8.58087 14.0237 8.51112 13.8609 8.37163L8.21375 3.53121C7.9336 3.29108 7.79353 3.17101 7.67493 3.16807C7.57186 3.16551 7.47341 3.2108 7.40828 3.29071C7.33333 3.38267 7.33333 3.56716 7.33333 3.93615V6.79965C5.91021 7.04862 4.60773 7.76973 3.63981 8.85247C2.58455 10.0329 2.00082 11.5605 2 13.1439V13.5519C2.69956 12.7091 3.573 12.0276 4.56051 11.5538C5.43113 11.1362 6.37228 10.8888 7.33333 10.8236V13.617C7.33333 13.986 7.33333 14.1705 7.40828 14.2624C7.47341 14.3423 7.57186 14.3876 7.67493 14.3851C7.79353 14.3821 7.9336 14.262 8.21375 14.0219L13.8609 9.1815Z" stroke="#6A5554" stroke-width="1.5" stroke-linecap="round" stroke-linejoin="round"/>
</svg>
