<svg width="40" height="41" viewBox="0 0 40 41" fill="none" xmlns="http://www.w3.org/2000/svg">
<path d="M20 0.5C8.95422 0.5 0 9.45422 0 20.5C0 31.5458 8.95422 40.5 20 40.5C31.0458 40.5 40 31.5458 40 20.5C40 9.45422 31.0458 0.5 20 0.5Z" fill="#40B3E0"/>
<path d="M29.7306 12.005L26.1584 30.0155C26.1584 30.0155 25.6589 31.2646 24.285 30.665L16.0415 24.345L13.044 22.8963L7.99811 21.1975C7.99811 21.1975 7.22374 20.9228 7.14874 20.3233C7.07389 19.7238 8.02311 19.3991 8.02311 19.3991L28.0819 11.5303C28.0819 11.5303 29.7306 10.806 29.7306 12.005Z" fill="white"/>
<path d="M15.4108 29.8132C15.4108 29.8132 15.1702 29.7907 14.8703 28.8413C14.5706 27.8921 13.0469 22.8962 13.0469 22.8962L25.162 15.2024C25.162 15.2024 25.8616 14.7777 25.8366 15.2024C25.8366 15.2024 25.9614 15.2773 25.5867 15.627C25.212 15.9768 16.0694 24.1951 16.0694 24.1951" fill="#D2E5F1"/>
<path d="M19.2045 26.768L15.9439 29.7409C15.9439 29.7409 15.6891 29.9343 15.4102 29.813L16.0345 24.291" fill="#B5CFE4"/>
</svg>
