<svg width="40" height="41" viewBox="0 0 40 41" fill="none" xmlns="http://www.w3.org/2000/svg">
<path d="M20.0005 4.86084C28.7695 4.86102 35.9165 12.0088 35.9165 20.7778C35.9163 29.5467 28.7694 36.6937 20.0005 36.6938C11.2315 36.6938 4.08367 29.5468 4.0835 20.7778C4.0835 12.0087 11.2314 4.86084 20.0005 4.86084ZM28.4976 14.647C27.7213 13.8707 26.4457 13.8707 25.6694 14.647L17.6333 22.6831L14.3306 19.3804C13.5544 18.6042 12.2797 18.6044 11.5034 19.3804C10.7272 20.1566 10.7272 21.4313 11.5034 22.2075L16.2202 26.9243C16.5925 27.2966 17.0989 27.5112 17.6333 27.5112C18.1678 27.5112 18.675 27.2967 19.0474 26.9243L28.5063 17.4653C29.2656 16.6797 29.2785 15.428 28.4976 14.647Z" fill="#17B26A" stroke="#17B26A" stroke-width="1.5"/>
</svg>
