<svg width="16" height="17" viewBox="0 0 16 17" fill="none" xmlns="http://www.w3.org/2000/svg">
<path d="M14 4.76497C11.78 4.54497 9.54667 4.43164 7.32 4.43164C6 4.43164 4.68 4.49831 3.36 4.63164L2 4.76497" stroke="#D92D20" stroke-width="1.5" stroke-linecap="round" stroke-linejoin="round"/>
<path d="M5.66699 4.09133L5.81366 3.21799C5.92033 2.58466 6.00033 2.11133 7.12699 2.11133H8.87366C10.0003 2.11133 10.087 2.61133 10.187 3.22466L10.3337 4.09133" stroke="#D92D20" stroke-width="1.5" stroke-linecap="round" stroke-linejoin="round"/>
<path d="M12.5669 6.87109L12.1336 13.5844C12.0603 14.6311 12.0003 15.4444 10.1403 15.4444H5.86026C4.00026 15.4444 3.94026 14.6311 3.86693 13.5844L3.43359 6.87109" stroke="#D92D20" stroke-width="1.5" stroke-linecap="round" stroke-linejoin="round"/>
<path d="M6.88672 11.7773H9.10672" stroke="#D92D20" stroke-width="1.5" stroke-linecap="round" stroke-linejoin="round"/>
<path d="M6.33301 9.11133H9.66634" stroke="#D92D20" stroke-width="1.5" stroke-linecap="round" stroke-linejoin="round"/>
</svg>
