<svg width="41" height="41" viewBox="0 0 41 41" fill="none" xmlns="http://www.w3.org/2000/svg">
<path fill-rule="evenodd" clip-rule="evenodd" d="M20.4942 0.5C9.46855 0.5 0.5 9.47106 0.5 20.4998C0.5 24.8737 1.91054 28.93 4.30834 32.2225L1.81632 39.6532L9.5037 37.1963C12.6655 39.2892 16.4387 40.5 20.5058 40.5C31.5314 40.5 40.5 31.5286 40.5 20.5002C40.5 9.47142 31.5314 0.500331 20.5058 0.500331L20.4942 0.5ZM14.9107 10.659C14.5229 9.73023 14.229 9.69506 13.6415 9.67117C13.4414 9.65955 13.2185 9.64795 12.9714 9.64795C12.207 9.64795 11.4079 9.87127 10.9259 10.365C10.3384 10.9647 8.88069 12.3636 8.88069 15.2327C8.88069 18.1017 10.973 20.8764 11.255 21.2647C11.5489 21.6523 15.334 27.6253 21.2111 30.0596C25.807 31.9643 27.1708 31.7878 28.2167 31.5644C29.7447 31.2353 31.6608 30.106 32.1429 28.7425C32.6249 27.3784 32.6249 26.2143 32.4835 25.9674C32.3426 25.7205 31.9544 25.5798 31.3669 25.2855C30.7794 24.9915 27.9228 23.5806 27.3821 23.3924C26.8529 23.1926 26.3477 23.2633 25.9483 23.8278C25.384 24.6155 24.8317 25.4153 24.3848 25.8971C24.0322 26.2734 23.4559 26.3205 22.9743 26.1204C22.3277 25.8503 20.5178 25.2148 18.2842 23.2278C16.5561 21.6878 15.3808 19.7715 15.0401 19.1954C14.6991 18.6077 15.0049 18.2663 15.2749 17.949C15.5689 17.5844 15.8509 17.3259 16.1448 16.9847C16.4387 16.6439 16.6033 16.4674 16.7914 16.0676C16.9914 15.6796 16.85 15.2798 16.7091 14.9858C16.5681 14.6918 15.3927 11.8228 14.9107 10.659Z" fill="#67C15E"/>
</svg>
