<svg width="265" height="64" viewBox="0 0 265 64" fill="none" xmlns="http://www.w3.org/2000/svg">
<rect x="0.735352" width="64" height="64" rx="14.1176" fill="#FFEECD"/>
<path d="M44.4521 13.3611C45.3791 13.4376 46.0334 13.2901 46.2121 12.9802C46.3534 12.7158 47.2026 12.4239 48.0347 12.3843C48.8627 12.3034 50.4601 12.398 51.5234 12.5865C53.3895 12.8637 53.439 12.9424 53.6755 14.5068C53.8139 15.496 53.4265 18.3747 52.7282 21.4928C52.055 24.4412 51.0074 28.2618 50.3038 30.0435C49.6416 31.8211 48.3696 34.2014 47.4357 35.3371C46.5018 36.4728 44.6724 38.2809 43.4366 39.3208C42.1553 40.3234 40.1279 41.8166 38.9466 42.5587C37.7652 43.3008 34.6826 44.6883 32.1391 45.6053C29.5957 46.5224 24.9358 48.0222 21.8046 48.9131C18.6694 49.7626 15.5342 50.6121 14.8759 50.7182C14.1802 50.8698 13.4178 51.1949 13.1523 51.4716C12.8827 51.7068 12.5596 51.8219 12.4606 51.6645C12.3162 51.4697 12.5918 50.4401 13.0248 49.3116C13.4538 48.1417 13.8393 46.0987 13.8714 44.7168C13.9036 43.335 14.2648 41.0437 14.6281 39.6296C14.9914 38.2154 15.8333 35.71 16.4621 34.0192C17.1364 32.3658 18.3882 29.7785 19.2898 28.3118C20.1499 26.849 21.9601 24.4161 23.2797 22.9503C24.5992 21.4844 26.2086 19.9903 26.8841 19.6318C27.5182 19.2774 29.7971 18.2191 31.8771 17.2638C33.9611 16.35 36.4884 15.2674 37.4991 14.918C38.5098 14.5685 40.0214 14.2119 40.8494 14.131C41.6734 14.0087 42.5266 13.7582 42.676 13.5765C42.8254 13.3948 43.6534 13.3138 44.4521 13.3611Z" fill="url(#paint0_linear_5_1074)"/>
<path d="M91.1222 54.7405C79.6527 55.6719 76.0293 55.0144 76.0293 43.0703V13.6482C80.2248 13.6482 85.5645 13.429 85.5645 19.0724V43.0703C85.5645 46.7138 85.619 46.9877 91.1222 46.9877V54.7405Z" fill="#FEAA00"/>
<path d="M108.831 55.0144C99.9495 55.0144 93.629 48.6862 93.629 40.276C93.629 32.6876 98.887 25.5649 108.177 25.5649C114.389 25.5649 120.055 29.4002 121.962 36.9338C122.807 40.2212 120.164 42.7689 116.922 42.7689H102.837C103.491 45.5084 105.371 47.5904 108.341 47.5904C110.983 47.5904 112.127 47.0973 114.47 45.618C117.167 44.0017 119.674 45.2619 121.881 48.7136C118.72 52.4119 114.906 55.0144 108.831 55.0144ZM102.865 37.9474C103.382 37.7831 103.982 37.7009 104.744 37.7009H113.19C112.454 34.7696 110.983 33.1807 108.177 33.1807C105.262 33.1807 103.491 35.1258 102.865 37.9474Z" fill="#FEAA00"/>
<path d="M143.543 31.0713C145.123 27.1265 145.995 26.2498 149.482 26.2498H154.849L139.783 64H130.493L134.525 53.8091C133.109 53.3708 131.964 52.3024 131.311 50.4395L122.783 26.2498H128.096C132.346 26.2498 133.436 29.7564 134.008 31.4822C135.234 35.1532 136.814 39.9473 138.312 44.2757L143.543 31.0713Z" fill="#FEAA00"/>
<path d="M176.586 31.0713C178.166 27.1265 179.038 26.2498 182.525 26.2498H187.892L172.827 64H163.537L167.569 53.8091C166.152 53.3708 165.008 52.3024 164.354 50.4395L155.827 26.2498H161.139C165.389 26.2498 166.479 29.7564 167.051 31.4822C168.277 35.1532 169.857 39.9473 171.356 44.2757L176.586 31.0713Z" fill="#FEAA00"/>
<path d="M202.2 55.261C192.801 55.261 187.598 48.0835 187.598 40.1938C187.598 32.2767 193.537 25.8663 202.2 25.8663C210.836 25.8663 216.776 32.2767 216.776 40.1938C216.776 48.0835 211.599 55.261 202.2 55.261ZM196.806 40.413C196.806 44.1935 198.958 46.8508 202.2 46.8508C205.415 46.8508 207.567 44.1935 207.567 40.413C207.567 37.153 205.415 26.2498 202.2 26.2498C198.958 26.2498 196.806 37.153 196.806 40.413Z" fill="#FEAA00"/>
<path d="M225.735 54.7405L217.071 26.2498H221.43C225.789 26.2498 227.206 26.6607 228.132 30.633L230.148 38.7145C230.611 40.5773 230.802 42.3306 230.829 44.1113L237.068 26.2498H244.315L249.764 42.1936L253.06 30.4412C254.313 26.195 255.703 26.2772 259.598 26.2498H263.794L255.403 54.7405H245.813L241.4 40.139L240.555 37.0982L239.656 40.0842L235.188 54.7405H225.735Z" fill="#FEAA00"/>
<defs>
<linearGradient id="paint0_linear_5_1074" x1="51.5588" y1="11.765" x2="15.7941" y2="46.8238" gradientUnits="userSpaceOnUse">
<stop stop-color="#FDC421"/>
<stop offset="1" stop-color="#FEAA00"/>
</linearGradient>
</defs>
</svg>
