<svg width="267" height="66" viewBox="0 0 267 66" fill="none" xmlns="http://www.w3.org/2000/svg">
<rect x="0.978516" y="1.18387" width="64" height="64" rx="14.1176" fill="#FEAA00"/>
<path d="M44.6953 14.545C45.6223 14.6215 46.2766 14.474 46.4553 14.1641C46.5966 13.8996 47.4458 13.6077 48.2778 13.5682C49.1058 13.4873 50.7033 13.5818 51.7666 13.7703C53.6326 14.0475 53.6821 14.1262 53.9186 15.6907C54.0571 16.6798 53.6697 19.5586 52.9713 22.6766C52.2982 25.625 51.2505 29.4457 50.547 31.2273C49.8848 33.0049 48.6128 35.3852 47.6789 36.5209C46.745 37.6566 44.9156 39.4648 43.6797 40.5046C42.3985 41.5072 40.3711 43.0004 39.1897 43.7426C38.0084 44.4847 34.9258 45.8722 32.3823 46.7892C29.8388 47.7062 25.179 49.206 22.0478 50.0969C18.9126 50.9464 15.7774 51.796 15.119 51.9021C14.4233 52.0536 13.661 52.3788 13.3955 52.6554C13.1259 52.8906 12.8028 53.0058 12.7038 52.8483C12.5594 52.6536 12.8349 51.624 13.268 50.4954C13.697 49.3255 14.0824 47.2825 14.1146 45.9007C14.1467 44.5189 14.5079 42.2276 14.8713 40.8134C15.2346 39.3992 16.0764 36.8938 16.7053 35.2031C17.3796 33.5496 18.6314 30.9624 19.5329 29.4956C20.393 28.0329 22.2032 25.6 23.5228 24.1341C24.8424 22.6683 26.4518 21.1741 27.1273 20.8156C27.7613 20.4612 30.0402 19.403 32.1202 18.4477C34.2043 17.5338 36.7316 16.4512 37.7423 16.1018C38.753 15.7524 40.2646 15.3957 41.0926 15.3148C41.9165 15.1925 42.7697 14.942 42.9192 14.7603C43.0686 14.5786 43.8966 14.4977 44.6953 14.545Z" fill="#FFEECD"/>
<path d="M91.3654 55.9244C79.8958 56.8558 76.2725 56.1983 76.2725 44.2542V14.8321C80.468 14.8321 85.8077 14.6129 85.8077 20.2563V44.2542C85.8077 47.8977 85.8622 48.1716 91.3654 48.1716V55.9244Z" fill="#FEAA00"/>
<path d="M109.074 56.1983C100.193 56.1983 93.8722 49.8701 93.8722 41.4599C93.8722 33.8715 99.1302 26.7488 108.42 26.7488C114.632 26.7488 120.298 30.5841 122.205 38.1177C123.05 41.4051 120.407 43.9528 117.165 43.9528H103.08C103.734 46.6923 105.614 48.7743 108.584 48.7743C111.226 48.7743 112.371 48.2812 114.713 46.8019C117.411 45.1856 119.917 46.4458 122.124 49.8975C118.963 53.5958 115.149 56.1983 109.074 56.1983ZM103.108 39.1313C103.625 38.967 104.225 38.8848 104.988 38.8848H113.433C112.697 35.9535 111.226 34.3646 108.42 34.3646C105.505 34.3646 103.734 36.3097 103.108 39.1313Z" fill="#FEAA00"/>
<path d="M143.786 32.2552C145.366 28.3104 146.238 27.4337 149.725 27.4337H155.092L140.026 65.1839H130.736L134.768 54.993C133.352 54.5547 132.208 53.4863 131.554 51.6234L123.027 27.4337H128.339C132.589 27.4337 133.679 30.9403 134.251 32.6661C135.477 36.3371 137.057 41.1312 138.555 45.4596L143.786 32.2552Z" fill="#FEAA00"/>
<path d="M176.829 32.2552C178.41 28.3104 179.281 27.4337 182.769 27.4337H188.136L173.07 65.1839H163.78L167.812 54.993C166.395 54.5547 165.251 53.4863 164.597 51.6234L156.07 27.4337H161.382C165.632 27.4337 166.722 30.9403 167.294 32.6661C168.52 36.3371 170.1 41.1312 171.599 45.4596L176.829 32.2552Z" fill="#FEAA00"/>
<path d="M202.443 56.4449C193.044 56.4449 187.841 49.2674 187.841 41.3777C187.841 33.4606 193.78 27.0502 202.443 27.0502C211.08 27.0502 217.019 33.4606 217.019 41.3777C217.019 49.2674 211.842 56.4449 202.443 56.4449ZM197.049 41.5969C197.049 45.3774 199.201 48.0347 202.443 48.0347C205.658 48.0347 207.81 45.3774 207.81 41.5969C207.81 38.3369 205.658 27.4337 202.443 27.4337C199.201 27.4337 197.049 38.3369 197.049 41.5969Z" fill="#FEAA00"/>
<path d="M225.978 55.9244L217.315 27.4337H221.674C226.032 27.4337 227.449 27.8446 228.375 31.8169L230.391 39.8984C230.855 41.7612 231.045 43.5145 231.073 45.2952L237.311 27.4337H244.558L250.007 43.3775L253.303 31.6251C254.556 27.3789 255.946 27.4611 259.842 27.4337H264.037L255.646 55.9244H246.056L241.643 41.3229L240.798 38.2821L239.899 41.2681L235.431 55.9244H225.978Z" fill="#FEAA00"/>
</svg>
