<svg width="824" height="200" viewBox="0 0 824 200" fill="none" xmlns="http://www.w3.org/2000/svg">
<rect width="200" height="200" rx="44.1176" fill="#FEAA00"/>
<path d="M136.615 41.7534C139.512 41.9925 141.556 41.5316 142.115 40.5631C142.556 39.7366 145.21 38.8245 147.81 38.701C150.398 38.4481 155.39 38.7436 158.713 39.3327C164.544 40.1989 164.699 40.4449 165.438 45.3338C165.87 48.4249 164.66 57.4209 162.478 67.1648C160.374 76.3787 157.1 88.3181 154.901 93.8857C152.832 99.4407 148.857 106.879 145.939 110.428C143.02 113.977 137.303 119.628 133.441 122.877C129.437 126.01 123.102 130.677 119.41 132.996C115.718 135.315 106.085 139.651 98.1368 142.517C90.1884 145.382 75.6263 150.069 65.8415 152.853C56.044 155.508 46.2464 158.163 44.1891 158.494C42.015 158.968 39.6327 159.984 38.8029 160.849C37.9605 161.584 36.9508 161.943 36.6415 161.451C36.1902 160.843 37.0512 157.625 38.4045 154.099C39.7451 150.443 40.9497 144.058 41.0502 139.74C41.1506 135.422 42.2794 128.262 43.4148 123.842C44.5502 119.423 47.1809 111.594 49.1461 106.31C51.2533 101.143 55.1652 93.0579 57.9824 88.4742C60.6704 83.9032 66.3272 76.3003 70.4509 71.7196C74.5746 67.1388 79.6039 62.4695 81.7147 61.3493C83.6963 60.2418 90.8178 56.9347 97.3178 53.9494C103.83 51.0935 111.728 47.7106 114.887 46.6186C118.045 45.5265 122.769 44.4121 125.356 44.1593C127.931 43.7771 130.598 42.9943 131.064 42.4264C131.531 41.8586 134.119 41.6057 136.615 41.7534Z" fill="#FFEECD"/>
<path d="M282.459 171.064C246.617 173.975 235.294 171.92 235.294 134.595V42.6506C248.405 42.6506 265.092 41.9658 265.092 59.6012V134.595C265.092 145.981 265.262 146.837 282.459 146.837V171.064Z" fill="#FEAA00"/>
<path d="M337.799 171.92C310.045 171.92 290.293 152.145 290.293 125.863C290.293 102.149 306.725 79.8905 335.756 79.8905C355.167 79.8905 372.875 91.8758 378.835 115.418C381.474 125.691 373.216 133.653 363.085 133.653H319.069C321.113 142.214 326.987 148.72 336.267 148.72C344.525 148.72 348.101 147.179 355.422 142.556C363.851 137.505 371.683 141.443 378.579 152.23C368.704 163.787 356.784 171.92 337.799 171.92ZM319.154 118.586C320.772 118.072 322.645 117.815 325.029 117.815H351.421C349.122 108.655 344.525 103.69 335.756 103.69C326.646 103.69 321.113 109.768 319.154 118.586Z" fill="#FEAA00"/>
<path d="M446.274 97.098C451.212 84.7703 453.937 82.0308 464.834 82.0308H481.606L434.526 200H405.494L418.094 168.153C413.667 166.784 410.092 163.445 408.048 157.624L381.401 82.0308H398.002C411.283 82.0308 414.689 92.9887 416.477 98.3821C420.308 109.854 425.246 124.835 429.928 138.362L446.274 97.098Z" fill="#FEAA00"/>
<path d="M549.535 97.098C554.473 84.7703 557.197 82.0308 568.095 82.0308H584.866L537.786 200H508.755L521.355 168.153C516.928 166.784 513.352 163.445 511.309 157.624L484.661 82.0308H501.263C514.544 82.0308 517.949 92.9887 519.737 98.3821C523.568 109.854 528.506 124.835 533.189 138.362L549.535 97.098Z" fill="#FEAA00"/>
<path d="M629.579 172.691C600.207 172.691 583.946 150.261 583.946 125.606C583.946 100.865 602.505 80.8322 629.579 80.8322C656.567 80.8322 675.126 100.865 675.126 125.606C675.126 150.261 658.951 172.691 629.579 172.691ZM612.722 126.291C612.722 138.105 619.447 146.409 629.579 146.409C639.625 146.409 646.35 138.105 646.35 126.291C646.35 116.103 639.625 82.0308 629.579 82.0308C619.447 82.0308 612.722 116.103 612.722 126.291Z" fill="#FEAA00"/>
<path d="M703.124 171.064L676.051 82.0308H689.673C703.294 82.0308 707.721 83.3149 710.616 95.7282L716.916 120.983C718.363 126.804 718.959 132.283 719.045 137.848L738.541 82.0308H761.187L778.214 131.855L788.515 95.129C792.432 81.8596 796.774 82.1164 808.948 82.0308H822.059L795.837 171.064H765.869L752.077 125.435L749.438 115.932L746.629 125.263L732.666 171.064H703.124Z" fill="#FEAA00"/>
</svg>
