<svg width="137" height="34" viewBox="0 0 137 34" fill="none" xmlns="http://www.w3.org/2000/svg">
<rect y="0.681641" width="33.181" height="33.181" rx="7.31933" fill="#4E3D3B"/>
<path d="M22.6652 7.60898C23.1458 7.64865 23.485 7.57218 23.5777 7.41151C23.651 7.27439 24.0912 7.12306 24.5226 7.10257C24.9519 7.06061 25.7801 7.10963 26.3313 7.20738C27.2988 7.35108 27.3245 7.3919 27.4471 8.20299C27.5189 8.7158 27.318 10.2083 26.956 11.8248C26.607 13.3535 26.0638 15.3343 25.699 16.258C25.3557 17.1796 24.6963 18.4137 24.2121 19.0025C23.7279 19.5913 22.7794 20.5287 22.1387 21.0679C21.4744 21.5876 20.4233 22.3618 19.8109 22.7466C19.1984 23.1313 17.6002 23.8507 16.2815 24.3261C14.9628 24.8015 12.5469 25.5791 10.9236 26.041C9.29812 26.4814 7.67266 26.9219 7.33134 26.9769C6.97065 27.0554 6.57542 27.224 6.43775 27.3674C6.29799 27.4894 6.13047 27.5491 6.07916 27.4675C6.00428 27.3665 6.14713 26.8327 6.37165 26.2476C6.59406 25.641 6.79391 24.5818 6.81057 23.8654C6.82724 23.149 7.0145 21.9611 7.20288 21.2279C7.39125 20.4947 7.8277 19.1958 8.15373 18.3192C8.50333 17.462 9.15232 16.1206 9.61972 15.3602C10.0657 14.6018 11.0042 13.3405 11.6883 12.5805C12.3724 11.8205 13.2068 11.0459 13.557 10.86C13.8858 10.6763 15.0673 10.1276 16.1456 9.63236C17.2261 9.15855 18.5364 8.5973 19.0604 8.41613C19.5844 8.23496 20.3681 8.05007 20.7974 8.00812C21.2246 7.94471 21.6669 7.81484 21.7444 7.72063C21.8219 7.62642 22.2511 7.58447 22.6652 7.60898Z" fill="white"/>
<path d="M46.8621 29.0623C40.9157 29.5452 39.0371 29.2044 39.0371 23.0119V7.75791C41.2123 7.75791 43.9807 7.64429 43.9807 10.5701V23.0119C43.9807 24.9009 44.0089 25.0429 46.8621 25.0429V29.0623Z" fill="#4E3D3B"/>
<path d="M56.0432 29.2044C51.4386 29.2044 48.1617 25.9235 48.1617 21.5632C48.1617 17.629 50.8878 13.9362 55.7042 13.9362C58.9246 13.9362 61.8625 15.9246 62.8512 19.8304C63.289 21.5348 61.919 22.8557 60.2381 22.8557H52.9358C53.2748 24.2759 54.2494 25.3554 55.7889 25.3554C57.159 25.3554 57.7522 25.0997 58.9669 24.3328C60.3653 23.4948 61.6647 24.1481 62.8088 25.9377C61.1704 27.8551 59.1929 29.2044 56.0432 29.2044ZM52.9499 20.3559C53.2183 20.2707 53.529 20.2281 53.9245 20.2281H58.3031C57.9217 18.7084 57.159 17.8846 55.7042 17.8846C54.1929 17.8846 53.2748 18.893 52.9499 20.3559Z" fill="#4E3D3B"/>
<path d="M74.0397 16.791C74.859 14.7458 75.3109 14.2913 77.1189 14.2913H79.9014L72.0906 33.8629H67.2741L69.3645 28.5794C68.6301 28.3522 68.0368 27.7983 67.6979 26.8325L63.2769 14.2913H66.0312C68.2346 14.2913 68.7996 16.1093 69.0962 17.004C69.7318 18.9072 70.551 21.3927 71.3278 23.6368L74.0397 16.791Z" fill="#4E3D3B"/>
<path d="M91.1712 16.791C91.9904 14.7458 92.4424 14.2913 94.2503 14.2913H97.0328L89.222 33.8629H84.4055L86.496 28.5794C85.7615 28.3522 85.1683 27.7983 84.8293 26.8325L80.4083 14.2913H83.1626C85.366 14.2913 85.931 16.1093 86.2276 17.004C86.8632 18.9072 87.6824 21.3927 88.4593 23.6368L91.1712 16.791Z" fill="#4E3D3B"/>
<path d="M104.451 29.3322C99.5779 29.3322 96.8801 25.611 96.8801 21.5206C96.8801 17.4159 99.9592 14.0924 104.451 14.0924C108.928 14.0924 112.007 17.4159 112.007 21.5206C112.007 25.611 109.324 29.3322 104.451 29.3322ZM101.654 21.6342C101.654 23.5942 102.77 24.9719 104.451 24.9719C106.117 24.9719 107.233 23.5942 107.233 21.6342C107.233 19.944 106.117 14.2913 104.451 14.2913C102.77 14.2913 101.654 19.944 101.654 21.6342Z" fill="#4E3D3B"/>
<path d="M116.652 29.0623L112.161 14.2913H114.421C116.681 14.2913 117.415 14.5043 117.895 16.5637L118.941 20.7536C119.181 21.7194 119.28 22.6284 119.294 23.5516L122.528 14.2913H126.285L129.11 22.5574L130.819 16.4643C131.469 14.2629 132.189 14.3055 134.209 14.2913H136.384L132.034 29.0623H127.062L124.774 21.4922L124.336 19.9156L123.87 21.4638L121.554 29.0623H116.652Z" fill="#4E3D3B"/>
</svg>
