<svg width="200" height="200" viewBox="0 0 200 200" fill="none" xmlns="http://www.w3.org/2000/svg">
<rect width="200" height="200" rx="44.1176" fill="#FFEECD"/>
<path d="M136.615 41.7534C139.512 41.9925 141.556 41.5316 142.115 40.5631C142.556 39.7367 145.21 38.8245 147.81 38.701C150.398 38.4481 155.39 38.7436 158.713 39.3327C164.544 40.1989 164.699 40.4449 165.438 45.3338C165.87 48.4249 164.66 57.4209 162.477 67.1648C160.374 76.3787 157.1 88.3181 154.901 93.8857C152.832 99.4407 148.857 106.879 145.939 110.428C143.02 113.977 137.303 119.628 133.441 122.877C129.437 126.01 123.102 130.677 119.41 132.996C115.718 135.315 106.085 139.651 98.1368 142.517C90.1884 145.382 75.6263 150.069 65.8415 152.853C56.044 155.508 46.2464 158.163 44.1891 158.494C42.015 158.968 39.6327 159.984 38.8029 160.849C37.9605 161.584 36.9508 161.943 36.6415 161.451C36.1902 160.843 37.0512 157.625 38.4045 154.099C39.7451 150.443 40.9497 144.058 41.0502 139.74C41.1506 135.422 42.2794 128.262 43.4148 123.842C44.5502 119.423 47.1809 111.594 49.1461 106.31C51.2533 101.143 55.1652 93.0579 57.9824 88.4742C60.6704 83.9032 66.3272 76.3003 70.4509 71.7196C74.5746 67.1388 79.6038 62.4695 81.7147 61.3493C83.6963 60.2418 90.8178 56.9347 97.3178 53.9494C103.83 51.0935 111.728 47.7106 114.887 46.6186C118.045 45.5266 122.769 44.4121 125.356 44.1593C127.931 43.7771 130.598 42.9943 131.064 42.4264C131.531 41.8586 134.119 41.6057 136.615 41.7534Z" fill="url(#paint0_linear_17_55)"/>
<defs>
<linearGradient id="paint0_linear_17_55" x1="158.823" y1="36.7654" x2="47.0585" y2="146.324" gradientUnits="userSpaceOnUse">
<stop stop-color="#FDC421"/>
<stop offset="1" stop-color="#FEAA00"/>
</linearGradient>
</defs>
</svg>
