<svg width="143" height="35" viewBox="0 0 143 35" fill="none" xmlns="http://www.w3.org/2000/svg">
<rect width="26.7619" height="26.7619" rx="5.90336" fill="#B65702"/>
<path d="M18.2803 5.58701C18.6679 5.619 18.9415 5.55732 19.0162 5.42773C19.0753 5.31714 19.4304 5.19509 19.7783 5.17856C20.1246 5.14472 20.7925 5.18426 21.2372 5.26309C22.0175 5.379 22.0382 5.41192 22.1371 6.0661C22.195 6.47971 22.033 7.68347 21.7409 8.98729C21.4595 10.2202 21.0214 11.8178 20.7272 12.5628C20.4503 13.3061 19.9184 14.3015 19.5279 14.7764C19.1374 15.2513 18.3724 16.0073 17.8556 16.4422C17.3199 16.8614 16.4721 17.4858 15.9781 17.7961C15.4841 18.1064 14.1951 18.6866 13.1315 19.0701C12.068 19.4535 10.1194 20.0807 8.81013 20.4532C7.49913 20.8085 6.18813 21.1637 5.91284 21.2081C5.62193 21.2714 5.30316 21.4074 5.19212 21.5231C5.0794 21.6214 4.94429 21.6696 4.9029 21.6037C4.84251 21.5223 4.95773 21.0918 5.13881 20.6199C5.3182 20.1306 5.47938 19.2764 5.49282 18.6985C5.50626 18.1207 5.6573 17.1626 5.80923 16.5713C5.96116 15.9799 6.31317 14.9323 6.57614 14.2253C6.8581 13.5339 7.38154 12.452 7.75852 11.8387C8.11819 11.227 8.87513 10.2097 9.42692 9.59676C9.9787 8.98381 10.6517 8.35901 10.9341 8.20912C11.1993 8.06092 12.1522 7.6184 13.022 7.21895C13.8934 6.8368 14.9502 6.38413 15.3729 6.23801C15.7955 6.09189 16.4276 5.94277 16.7738 5.90893C17.1183 5.85779 17.4751 5.75304 17.5376 5.67706C17.6001 5.60107 17.9463 5.56724 18.2803 5.58701Z" fill="#FFEECD"/>
<path d="M40.2777 23.8674C35.9671 23.8674 32.7617 20.6317 32.7617 16.6282C32.7617 12.6247 35.5664 9.12852 40.1396 9.12852C43.3587 9.12852 46.3016 11.1303 47.1996 15.0926C47.545 16.5871 46.343 17.7525 44.8371 17.7525H37.0171C37.3763 19.2469 38.4816 20.4535 40.1396 20.4535C41.383 20.4535 42.0462 20.1656 43.3726 19.2744C43.7041 19.055 44.1186 18.9316 44.5746 18.9316C45.3897 18.9316 46.2878 19.3566 46.9095 20.4535C45.6522 22.085 43.7594 23.8674 40.2777 23.8674ZM37.0171 15.3806C37.2796 15.2297 37.6665 15.1338 38.15 15.1338H43.0272C42.5712 13.653 41.7146 12.8578 40.1396 12.8578C38.4678 12.8578 37.3763 13.845 37.0171 15.3806Z" fill="#B65702"/>
<path d="M57.8204 11.6924C58.6356 9.7455 59.0915 9.49871 60.7771 9.47129H62.891L57.8204 23.7303H52.8328L47.7484 9.47129H49.9866C51.3406 9.47129 52.1005 9.71808 52.888 11.8844L54.0762 15.1749C54.5322 16.4226 54.8223 18.8082 54.5045 20.9745L57.8204 11.6924Z" fill="#B65702"/>
<path d="M70.3657 23.8674C66.0551 23.8674 62.8497 20.6317 62.8497 16.6282C62.8497 12.6247 65.6544 9.12852 70.2276 9.12852C73.4467 9.12852 76.3896 11.1303 77.2876 15.0926C77.633 16.5871 76.431 17.7525 74.9251 17.7525H67.1051C67.4643 19.2469 68.5696 20.4535 70.2276 20.4535C71.471 20.4535 72.1342 20.1656 73.4606 19.2744C73.7921 19.055 74.2066 18.9316 74.6626 18.9316C75.4777 18.9316 76.3758 19.3566 76.9975 20.4535C75.7402 22.085 73.8474 23.8674 70.3657 23.8674ZM67.1051 15.3806C67.3676 15.2297 67.7545 15.1338 68.238 15.1338H73.1152C72.6592 13.653 71.8026 12.8578 70.2276 12.8578C68.5558 12.8578 67.4643 13.845 67.1051 15.3806Z" fill="#B65702"/>
<path d="M89.1383 15.8604C89.1383 14.174 88.0468 12.9812 86.4717 12.9812C84.7585 12.9812 83.7361 14.4071 83.7361 15.8604V23.7303H79.4669V9.47129L81.1249 9.485C83.1973 9.47129 83.667 10.4722 83.7223 11.8569C84.4546 10.2665 85.8086 9.27934 87.7152 9.27934C91.0725 9.27934 93.3937 11.7747 93.3937 15.3806V23.7303H89.1383V15.8604Z" fill="#B65702"/>
<path d="M105.113 23.7303C99.7664 24.2102 97.39 23.8674 97.39 17.7662V12.8852H94.8754V9.47129H97.39V9.1011C97.39 6.0025 99.9322 5.93395 101.659 5.93395V9.47129H105.113V12.8852H100.029C100.816 12.8852 101.659 13.6942 101.659 15.0378V17.7662C101.659 20.097 102.322 20.1793 105.113 20.1793V23.7303Z" fill="#B65702"/>
<path d="M109.533 8.86802C109.533 2.89019 111.91 2.56114 117.657 3.0273V5.44037C117.657 6.05735 117.187 6.50979 116.524 6.5235C114.3 6.56464 113.802 6.89369 113.802 8.86802V9.47129H117.16V12.8167H112.172C112.96 12.8167 113.802 13.6119 113.802 14.9281V23.7303H109.533V12.8167H107.019V9.47129H109.533V8.86802Z" fill="#B65702"/>
<path d="M124.141 23.7303C122.234 23.7303 118.807 22.6883 118.807 18.4106V9.47129H123.077V17.1766C123.077 18.9179 124.141 20.0696 125.619 20.0696C127.65 20.0696 128.341 18.3969 128.341 16.6556V9.47129H132.596V23.7303H128.962L128.479 21.0705C127.677 22.6335 126.296 23.7303 124.141 23.7303Z" fill="#B65702"/>
<path d="M142.762 23.7303C137.028 24.1965 135.19 23.8674 135.19 17.8896V3.16441C136.614 3.16441 139.46 3.05472 139.46 5.87911V17.8896C139.46 20.1656 139.57 20.2478 142.762 20.2478V23.7303Z" fill="#B65702"/>
<path d="M108.187 33.5655C107.676 33.5655 107.256 33.3062 106.968 32.9081L106.892 33.4778H106V28C106.493 28 107.112 28.0657 107.112 28.7523V29.4315C107.112 29.815 107.022 30.0852 106.91 30.3591C107.198 29.9428 107.644 29.6799 108.187 29.6799C109.223 29.6799 109.846 30.5271 109.846 31.5715C109.846 32.616 109.223 33.5655 108.187 33.5655ZM107.928 32.5721C108.428 32.5721 108.774 32.0901 108.774 31.5715C108.774 31.053 108.428 30.644 107.928 30.644C107.446 30.644 107.09 31.053 107.09 31.5715C107.09 32.0901 107.446 32.5721 107.928 32.5721Z" fill="#4F3D3B"/>
<path d="M112.771 30.3226C112.987 29.8004 113.149 29.6799 113.609 29.6799H114.152L112.12 34.7121H110.969L111.515 33.3829C111.31 33.3354 111.13 33.1893 111.019 32.8716L109.904 29.6799H110.501C111.059 29.6799 111.181 30.1546 111.256 30.3883C111.479 31.0676 111.731 31.7614 111.943 32.3384L112.771 30.3226Z" fill="#4F3D3B"/>
<path d="M118.353 33.7128C116.782 33.8422 116.286 33.7508 116.286 32.0904V28.0002C116.86 28.0002 117.592 27.9697 117.592 28.7542V32.0904C117.592 32.5969 117.599 32.635 118.353 32.635V33.7128Z" fill="#4F3D3B"/>
<path d="M120.778 33.7508C119.562 33.7508 118.696 32.8711 118.696 31.7019C118.696 30.647 119.416 29.6568 120.688 29.6568C121.539 29.6568 122.315 30.19 122.576 31.2373C122.692 31.6943 122.33 32.0485 121.886 32.0485H119.957C120.047 32.4293 120.304 32.7188 120.711 32.7188C121.073 32.7188 121.229 32.6502 121.55 32.4446C121.92 32.2199 122.263 32.3951 122.565 32.8749C122.132 33.389 121.61 33.7508 120.778 33.7508ZM119.961 31.3782C120.032 31.3554 120.114 31.3439 120.218 31.3439H121.375C121.274 30.9364 121.073 30.7155 120.688 30.7155C120.289 30.7155 120.047 30.9859 119.961 31.3782Z" fill="#4F3D3B"/>
<path d="M125.532 30.4223C125.748 29.8739 125.867 29.752 126.345 29.752H127.08L125.017 35H123.745L124.297 33.5833C124.103 33.5223 123.946 33.3738 123.856 33.1148L122.689 29.752H123.416C123.998 29.752 124.147 30.2395 124.226 30.4794C124.394 30.9898 124.61 31.6562 124.815 32.258L125.532 30.4223Z" fill="#4F3D3B"/>
<path d="M130.057 30.4223C130.273 29.8739 130.393 29.752 130.87 29.752H131.605L129.542 35H128.27L128.822 33.5833C128.628 33.5223 128.471 33.3738 128.382 33.1148L127.214 29.752H127.941C128.524 29.752 128.673 30.2395 128.751 30.4794C128.919 30.9898 129.135 31.6562 129.341 32.258L130.057 30.4223Z" fill="#4F3D3B"/>
<path d="M133.565 33.7851C132.278 33.7851 131.565 32.7873 131.565 31.6905C131.565 30.5899 132.378 29.6987 133.565 29.6987C134.747 29.6987 135.561 30.5899 135.561 31.6905C135.561 32.7873 134.852 33.7851 133.565 33.7851ZM132.826 31.721C132.826 32.2465 133.121 32.6159 133.565 32.6159C134.005 32.6159 134.3 32.2465 134.3 31.721C134.3 31.2678 134.005 29.752 133.565 29.752C133.121 29.752 132.826 31.2678 132.826 31.721Z" fill="#4F3D3B"/>
<path d="M136.788 33.7128L135.601 29.752H136.198C136.795 29.752 136.989 29.8091 137.116 30.3614L137.392 31.4848C137.456 31.7438 137.482 31.9876 137.486 32.2351L138.34 29.752H139.332L140.079 31.9685L140.53 30.3347C140.702 29.7444 140.892 29.7558 141.425 29.752H142L140.851 33.7128H139.538L138.933 31.6829L138.817 31.2601L138.694 31.6753L138.082 33.7128H136.788Z" fill="#4F3D3B"/>
</svg>
